<?xml version="1.0" encoding="UTF-8"?><svg xmlns="http://www.w3.org/2000/svg" width="48" height="48" xmlns:xlink="http://www.w3.org/1999/xlink" viewBox="0 0 48 48"><defs><radialGradient id="radial-gradient" cx="-226.466" cy="-1651.5208" fx="-226.466" fy="-1651.5208" r="17.5796" gradientTransform="translate(338.2416 -725.6562) scale(1.3887 -.4631)" gradientUnits="userSpaceOnUse"><stop offset="0" stop-color="#000"/><stop offset=".1964" stop-color="#000"/><stop offset="1" stop-color="#000" stop-opacity="0"/></radialGradient><linearGradient id="linear-gradient" x1="-154.9586" y1="-265.7578" x2="-154.9586" y2="-254.3381" gradientTransform="translate(217.7204 -296.4262) scale(1.2504 -1.251)" gradientUnits="userSpaceOnUse"><stop offset="0" stop-color="#eaba6f"/><stop offset="1" stop-color="#b97a1b"/></linearGradient><linearGradient id="linear-gradient-2" x1="-157.8049" y1="-250.8739" x2="-146.4967" y2="-278.3501" gradientTransform="translate(217.7204 -296.4262) scale(1.2504 -1.251)" gradientUnits="userSpaceOnUse"><stop offset="0" stop-color="#fff"/><stop offset="1" stop-color="#fff" stop-opacity=".6864"/></linearGradient><linearGradient id="linear-gradient-3" x1="-151.2976" y1="-130.402" x2="-125.8594" y2="-136.3317" gradientTransform="translate(196.6254 -184.1571) scale(1.2267 -1.4478)" gradientUnits="userSpaceOnUse"><stop offset="0" stop-color="#e9b96e"/><stop offset="1" stop-color="#c17d11"/></linearGradient><linearGradient id="linear-gradient-4" x1="6.3912" y1="-442.7756" x2="41.7949" y2="-442.7756" gradientTransform="translate(0 -436) scale(1 -1)" gradientUnits="userSpaceOnUse"><stop offset="0" stop-color="#babdb6"/><stop offset="1" stop-color="#93978d"/></linearGradient><linearGradient id="linear-gradient-5" x1="-140.9922" y1="-143.5979" x2="-140.9922" y2="-136.4082" gradientTransform="translate(196.6254 -193.3742) scale(1.2267 -1.4316)" gradientUnits="userSpaceOnUse"><stop offset="0" stop-color="#fff"/><stop offset="1" stop-color="#fff" stop-opacity="0"/></linearGradient><linearGradient id="linear-gradient-6" x1="-124.5963" y1="2407.0935" x2="-124.5963" y2="2412.9685" gradientTransform="translate(173.2067 -1319.2042) scale(1.1995 .5534)" xlink:href="#linear-gradient-5"/><linearGradient id="linear-gradient-7" x1="-38.9839" y1="1010.443" x2="-39.2063" y2="1027.9251" gradientTransform="translate(-2015.0035 54.624) rotate(90) scale(1.2271 -1.9992)" gradientUnits="userSpaceOnUse"><stop offset="0" stop-color="#fff"/><stop offset=".5" stop-color="#fff" stop-opacity="0"/><stop offset=".75" stop-color="#fff" stop-opacity=".502"/><stop offset="1" stop-color="#fff" stop-opacity="0"/></linearGradient><radialGradient id="radial-gradient-2" cx="26.6429" cy="26.1786" fx="26.6429" fy="26.1786" r="13" gradientUnits="userSpaceOnUse"><stop offset="0" stop-color="#fff"/><stop offset="1" stop-color="#f5f5f5"/></radialGradient><linearGradient id="linear-gradient-8" x1="35" y1="46.1429" x2="35" y2="23.8571" gradientUnits="userSpaceOnUse"><stop offset=".5" stop-color="#212121"/><stop offset="1" stop-color="#fff" stop-opacity=".5"/></linearGradient><radialGradient id="radial-gradient-3" cx="-1388.1893" cy="1056.676" fx="-1388.1893" fy="1056.676" r="29.9382" gradientTransform="translate(-1280.5123 -968.2258) rotate(-180) scale(.9402 -.9402)" gradientUnits="userSpaceOnUse"><stop offset="0" stop-color="#fff"/><stop offset=".4051" stop-color="#929292"/><stop offset=".816" stop-color="#2a2a2a"/><stop offset=".9747" stop-color="#000"/></radialGradient></defs><g id="HOUDINI_ICONS"><g id="layer1"><path id="path4944" d="M48.1553,39.1915c.0045,4.4956-10.9201,8.1413-24.4007,8.1428S-.6579,43.6926-.6623,39.1969c0-.0018,0-.0036,0-.0054-.0045-4.4956,10.9201-8.1413,24.4007-8.1428,13.4806-.0015,24.4125,3.6417,24.417,8.1374v.0054Z" style="fill:url(#radial-gradient); isolation:isolate; opacity:.5696; stroke-width:0px;"/><path id="rect3115" d="M4.0567,12.6048h39.9249l-.0603,25.9186c0,1.6595-1.3519,2.9954-3.0312,2.9954H6.9663c-1.6793,0-3.0312-1.336-3.0312-2.9954l.1215-25.9186Z" style="fill:url(#linear-gradient); stroke:#a0670c; stroke-width:1px;"/><path id="rect4220" d="M5.292,13.8161h37.4189l-.2121,24.758c0,.8904-.7164,1.6071-1.6064,1.6071H6.8378c-.8899,0-1.6064-.7168-1.6064-1.6071l.0606-24.758Z" style="fill:none; isolation:isolate; opacity:.481; stroke:url(#linear-gradient-2); stroke-width:1px;"/><path id="path4162" d="M3.995,12.5954L10.9572,2.0137l25.9129-.1569,7.1966,10.5238-40.0718.2148Z" style="fill:url(#linear-gradient-3); fill-rule:evenodd; stroke:#8f5902; stroke-linejoin:round;"/><path id="path3287" d="M6.5864,11.2537l5.2332-7.9376,24.3372-.1177,5.4094,7.8942-34.9799.1611Z" style="fill:none; stroke:rgba(255,255,255,.502);"/><path id="path3293" d="M23.258,2.2165v10.1101" style="fill:none; stroke:#8f5902; stroke-width:1px;"/><path id="path3352" d="M8.8076,5.2706h30.4535l2.0338,3.0099H6.8912l1.9164-3.0099Z" style="fill:rgba(211,215,207,.502); fill-rule:evenodd; stroke:url(#linear-gradient-4); stroke-width:1px;"/><path id="path3295" d="M21.0758,2.0941l-1.5458,9.9764v9.3896c2.6975-.2912,5.395-3.8016,8.0925-3.2277v-6.7488l-2.0913-9.4874-4.4554.0978Z" style="fill:rgba(211,215,207,.502); fill-rule:evenodd; stroke:#babdb6; stroke-width:1px;"/><path id="path3297" d="M21.0758,1.9054l-1.3639,10.8233h7.9106l-2.0913-10.8233h-4.4554Z" style="fill:url(#linear-gradient-5); fill-rule:evenodd; stroke-width:0px;"/><path id="path3311" d="M20.113,15.7301l-.3556-3.0924h8.0015l-.3556,3.4562-7.2903-.3638Z" style="fill:url(#linear-gradient-6); fill-rule:evenodd; stroke-width:0px;"/><path id="path3354" d="M38.5464,5.2251l-30.0752-.3638-2.3766,3.7291,34.8486-.1819-2.3968-3.1833Z" style="fill:url(#linear-gradient-7); fill-rule:evenodd; stroke-width:0px;"/></g></g><g id="SYMBOLS"><g id="jellyfish"><g id="badge"><circle id="jf_rim" cx="35" cy="35" r="13" style="fill:url(#radial-gradient-2); stroke-width:0px;"/><circle id="inner_rim" cx="35" cy="35" r="11.1429" style="fill:#212121; stroke-width:0px;"/><path d="M35.1479,44.403c-2.4535,0-4.7638-.9562-6.5054-2.6926l-.2953-.2949,2.6066-2.6064c-.8692-1.0075-1.3457-2.2798-1.3457-3.6054,0-3.0546,2.4852-5.5398,5.5398-5.5398,1.3248,0,2.597.4763,3.605,1.3455l2.607-2.6068.2945.2961c1.7364,1.7417,2.6928,4.052,2.6928,6.505,0,5.0725-4.1268,9.1993-9.1993,9.1993ZM32.1311,38.8095c.8479.7118,1.9107,1.101,3.0168,1.101,2.5954,0,4.7068-2.1114,4.7068-4.7068,0-1.1059-.3895-2.1687-1.101-3.0168l-6.6226,6.6226Z" style="opacity:.05; stroke-width:0px;"/><path d="M41.5067,28.8455l-.1472-.1481-2.5984,2.5984c-.9892-.9162-2.2618-1.4237-3.6131-1.4237-2.9399,0-5.3316,2.3916-5.3316,5.3316,0,1.3515.5074,2.6243,1.4239,3.6134l-2.5984,2.5984.1476.1472c1.7024,1.6973,3.9604,2.632,6.3584,2.632,4.9576,0,8.991-4.0333,8.991-8.991,0-2.3977-.9349-4.6556-2.6322-6.3582ZM35.1479,40.1188c-1.2428,0-2.4119-.4631-3.3211-1.2995l6.9366-6.9366c.8365.9093,1.2995,2.0785,1.2995,3.321,0,2.7101-2.2049,4.9151-4.9151,4.9151Z" style="opacity:.07; stroke-width:0px;"/><path d="M38.7684,31.5833l-7.2409,7.2409c-.9271-.9271-1.5028-2.2055-1.5028-3.6204,0-2.83,2.2933-5.1233,5.1233-5.1233,1.415,0,2.6934.5758,3.6204,1.5028Z" style="fill:#f5f5f5; stroke-width:0px;"/><path d="M41.3593,28.9923l-2.5887,2.5887c.9271.9271,1.5006,2.2079,1.5006,3.6227,0,2.8295-2.2938,5.1233-5.1233,5.1233-1.4148,0-2.6956-.5734-3.6227-1.5006l-2.5887,2.5887c1.5907,1.5858,3.7864,2.5714,6.2114,2.5714,4.85,0,8.7828-3.9327,8.7828-8.7828,0-2.425-.9856-4.6207-2.5714-6.2114Z" style="fill:#f5f5f5; stroke-width:0px;"/><path d="M38.7684,31.5833l-7.2409,7.2409c-.9271-.9271-1.5028-2.2055-1.5028-3.6204,0-2.83,2.2933-5.1233,5.1233-5.1233,1.415,0,2.6934.5758,3.6204,1.5028Z" style="fill:#f5f5f5; stroke-width:0px;"/><path d="M35,23.8571c-6.1541,0-11.1429,4.9888-11.1429,11.1429s4.9888,11.1429,11.1429,11.1429,11.1429-4.9888,11.1429-11.1429-4.9888-11.1429-11.1429-11.1429ZM35,45.2143c-5.6322,0-10.2143-4.583-10.2143-10.2143s4.5821-10.2143,10.2143-10.2143,10.2143,4.583,10.2143,10.2143-4.5821,10.2143-10.2143,10.2143Z" style="fill:url(#linear-gradient-8); opacity:.15; stroke-width:0px;"/><circle id="glass" cx="35" cy="35" r="13" style="fill:url(#radial-gradient-3); isolation:isolate; opacity:.25; stroke-width:0px;"/></g></g></g></svg>