<?xml version="1.0" encoding="UTF-8"?><svg xmlns="http://www.w3.org/2000/svg" width="48" height="48" xmlns:xlink="http://www.w3.org/1999/xlink" viewBox="0 0 48 48"><defs><linearGradient id="linear-gradient" x1="35" y1="47.4989" x2="35" y2="22.5009" gradientUnits="userSpaceOnUse"><stop offset=".5" stop-color="#212121"/><stop offset="1" stop-color="#fff" stop-opacity=".5"/></linearGradient></defs><g id="HOUDINI_ICONS"><g id="layer1"><path id="path4046" d="M5.6564,35.1942l19.2925-11.0515" style="fill:none; stroke:#b9bfbb; stroke-width:1.8797px;"/><path id="path4030" d="M10.9729,31.9603l-5.7657,3.3289" style="fill:none; stroke:#545a56; stroke-linecap:round; stroke-linejoin:round; stroke-width:2.8195px;"/><path id="path4050" d="M25.0238,2.1556v21.9059" style="fill:none; stroke:#b9bfbb; stroke-width:1.8797px;"/><path id="path4034" d="M24.9764,1.6809v7.0254" style="fill:none; stroke:#545a56; stroke-linecap:round; stroke-linejoin:round; stroke-width:2.8195px;"/><path id="path3910" d="M25.0175,24.1461l19.089,11.1431" style="fill:none; stroke:#b9bfbb; stroke-width:1.8797px;"/><path id="path4032" d="M44.4387,35.2801l-5.8219-3.3613" style="fill:none; stroke:#545a56; stroke-linecap:round; stroke-linejoin:round; stroke-width:2.8195px;"/><path id="path4056" d="M25.162,24.1135v22.0584l18.9322-10.9305V13.2659l-18.9322,10.8475Z" style="fill:rgba(184,184,184,.3351); stroke-width:0px;"/><path id="path4058" d="M5.2316,12.8507L24.6948,1.6918l19.4633,11.107-19.2038,11.0032L5.2316,12.8507Z" style="fill:rgba(255,255,255,.3351); stroke-width:0px;"/><path id="path4060" d="M24.6309,24.1135v22.0584l-18.9322-10.9305V13.2659l18.9322,10.8475Z" style="fill:rgba(234,234,234,.3351); stroke-width:0px;"/><path id="path3937" d="M25.0238,24.0616v21.9556" style="fill:none; stroke:#b9bfbb; stroke-width:1.8797px;"/><path id="path3140" d="M5.6564,12.8837v22.2156l19.2752,11.1285,19.1368-11.0486V13.0736L24.7505,1.9204,5.6564,12.8837Z" style="fill:none; stroke:#b9bfbb; stroke-width:1.8797px;"/><path id="path4054" d="M5.5615,12.7887l19.456,11.3573" style="fill:none; stroke:#b9bfbb; stroke-width:1.8797px;"/><path id="path3929" d="M24.9489,24.1427l19.1575-10.9742" style="fill:none; stroke:#b9bfbb; stroke-width:1.8797px;"/><path id="path3945" d="M5.2766,19.3395v-6.3609l6.048-3.4918" style="fill:none; stroke:#545a56; stroke-linecap:round; stroke-linejoin:round; stroke-width:2.8195px;"/><path id="path4014" d="M11.4002,16.1116l-5.7657-3.3289" style="fill:none; stroke:#545a56; stroke-linecap:round; stroke-linejoin:round; stroke-width:2.8195px;"/><path id="path3947" d="M19.3275,4.624l5.4754-3.1612,5.9301,3.4237" style="fill:none; stroke:#545a56; stroke-linecap:round; stroke-linejoin:round; stroke-width:2.8195px;"/><path id="path3966" d="M38.695,9.371l5.6604,3.268v6.653" style="fill:none; stroke:#545a56; stroke-linecap:round; stroke-linejoin:round; stroke-width:2.8195px;"/><path id="path4022" d="M44.4387,12.8362l-5.8219,3.3613" style="fill:none; stroke:#545a56; stroke-linecap:round; stroke-linejoin:round; stroke-width:2.8195px;"/><path id="path3974" d="M44.4862,28.5011v6.6457l-5.7727,3.3329" style="fill:none; stroke:#545a56; stroke-linecap:round; stroke-linejoin:round; stroke-width:2.8195px;"/><path id="path3982" d="M30.4828,43.264l-5.6028,3.2348-5.6252-3.2477" style="fill:none; stroke:#545a56; stroke-linecap:round; stroke-linejoin:round; stroke-width:2.8195px;"/><path id="path4042" d="M24.9764,38.8019v7.0254" style="fill:none; stroke:#545a56; stroke-linecap:round; stroke-linejoin:round; stroke-width:2.8195px;"/><path id="path3990" d="M11.0204,38.5645l-5.8645-3.3859v-6.7725" style="fill:none; stroke:#545a56; stroke-linecap:round; stroke-linejoin:round; stroke-width:2.8195px;"/><path id="path3998" d="M19.1377,20.6686l5.7823,3.3384,5.7642-3.3279" style="fill:none; stroke:#545a56; stroke-linecap:round; stroke-linejoin:round; stroke-width:2.8195px;"/><path id="path4006" d="M24.9764,23.9915v6.5982" style="fill:none; stroke:#545a56; stroke-linecap:round; stroke-linejoin:round; stroke-width:2.8195px;"/></g></g><g id="SYMBOLS"><rect x="22" y="22" width="26" height="26" rx="6.5692" ry="6.5692" style="opacity:.07; stroke-width:0px;"/><path d="M28.5692,22.2505h12.8623c3.487,0,6.318,2.831,6.318,6.318v12.863c0,3.487-2.831,6.318-6.318,6.318h-12.863c-3.487,0-6.318-2.831-6.318-6.318v-12.8623c0-3.4874,2.8313-6.3187,6.3187-6.3187Z" style="opacity:.15; stroke-width:0px;"/><path d="M22.5011,28.5684v12.863c0,3.4888,2.1236,6.0676,6.0682,6.0674l12.8622.0002c3.9438-.0002,6.0674-2.5788,6.0674-6.0676v-12.863c0-3.4888-2.1236-6.0673-6.0674-6.0674h-12.8622c-3.9446,0-6.0682,2.5786-6.0682,6.0674Z" style="fill:#212121; stroke-width:0px;"/><path d="M33.4533,44.52c-2.9515,0-5.7308-1.1504-7.826-3.2392l-.3552-.3548,3.1357-3.1355c-1.0457-1.212-1.6189-2.7426-1.6189-4.3372,0-3.6747,2.9897-6.6644,6.6644-6.6644,1.5937,0,3.1242.573,4.3368,1.6186l3.1362-3.136.3543.3562c2.0889,2.0952,3.2395,4.8745,3.2395,7.8255,0,6.1022-4.9645,11.0667-11.0667,11.0667ZM29.8241,37.791c1.02.8563,2.2985,1.3246,3.6292,1.3246,3.1223,0,5.6623-2.54,5.6623-5.6623,0-1.3304-.4685-2.609-1.3246-3.6292l-7.967,7.967Z" style="opacity:.05; stroke-width:0px;"/><path d="M41.1029,25.8044l-.1771-.1781-3.1259,3.1259c-1.19-1.1022-2.7209-1.7128-4.3466-1.7128-3.5367,0-6.4139,2.8771-6.4139,6.4139,0,1.6258.6104,3.1571,1.713,4.3469l-3.1258,3.1258.1776.1771c2.048,2.0419,4.7644,3.1663,7.6491,3.1663,5.964,0,10.8162-4.852,10.8162-10.8162,0-2.8845-1.1247-5.6006-3.1666-7.6489ZM33.4533,39.3661c-1.4951,0-2.9015-.5571-3.9953-1.5633l8.3448-8.3447c1.0063,1.0939,1.5633,2.5004,1.5633,3.9952,0,3.2603-2.6526,5.9128-5.9128,5.9128Z" style="opacity:.07; stroke-width:0px;"/><path d="M37.8087,29.0979l-8.7108,8.7108c-1.1153-1.1153-1.8079-2.6532-1.8079-4.3554,0-3.4045,2.7588-6.1633,6.1633-6.1633,1.7023,0,3.2402.6926,4.3554,1.8079Z" style="fill:#f5f5f5; stroke-width:0px;"/><path d="M40.9256,25.981l-3.1141,3.1142c1.1154,1.1154,1.8052,2.6561,1.8052,4.3581,0,3.4039-2.7594,6.1633-6.1633,6.1633-1.702,0-3.2428-.6898-4.3581-1.8052l-3.1141,3.1141c1.9136,1.9077,4.555,3.0934,7.4723,3.0934,5.8346,0,10.5657-4.7311,10.5657-10.5657,0-2.9173-1.1857-5.5587-3.0934-7.4723Z" style="fill:#f5f5f5; stroke-width:0px;"/><path d="M37.8087,29.0979l-8.7108,8.7108c-1.1153-1.1153-1.8079-2.6532-1.8079-4.3554,0-3.4045,2.7588-6.1633,6.1633-6.1633,1.7023,0,3.2402.6926,4.3554,1.8079Z" style="fill:#f5f5f5; stroke-width:0px;"/><path d="M41.4315,22.5009h-12.8622c-3.9446,0-6.0682,2.5786-6.0682,6.0674v12.863c0,3.4887,2.1236,6.0676,6.0682,6.0674h12.8622c3.9438,0,6.0674-2.5787,6.0674-6.0674v-12.863c0-3.4888-2.1236-6.0673-6.0674-6.0674ZM47.2484,41.4315c0,3.5881-2.2288,5.8169-5.8169,5.8169h-12.8623c-3.5884,0-5.8177-2.2288-5.8177-5.8169v-12.863c0-3.5881,2.2293-5.8169,5.8177-5.8169h12.8623c3.5881,0,5.8169,2.2288,5.8169,5.8169v12.863Z" style="fill:url(#linear-gradient); opacity:.25; stroke-width:0px;"/></g></svg>