<?xml version="1.0" encoding="UTF-8"?><svg xmlns="http://www.w3.org/2000/svg" width="48" height="48" xmlns:xlink="http://www.w3.org/1999/xlink" viewBox="0 0 48 48"><defs><radialGradient id="radial-gradient" cx="-165.7263" cy="-1758.9364" fx="-165.7263" fy="-1758.9364" r="17.5796" gradientTransform="translate(253.892 -775.4022) scale(1.3887 -.4631)" gradientUnits="userSpaceOnUse"><stop offset="0" stop-color="#000"/><stop offset=".1964" stop-color="#000"/><stop offset="1" stop-color="#000" stop-opacity="0"/></radialGradient><linearGradient id="linear-gradient" x1="-111.5015" y1="-326.9362" x2="-111.5015" y2="-315.5165" gradientTransform="translate(163.3812 -372.96) scale(1.2504 -1.251)" gradientUnits="userSpaceOnUse"><stop offset="0" stop-color="#eaba6f"/><stop offset="1" stop-color="#b97a1b"/></linearGradient><linearGradient id="linear-gradient-2" x1="-114.3478" y1="-312.0523" x2="-103.0396" y2="-339.5284" gradientTransform="translate(163.3812 -372.96) scale(1.2504 -1.251)" gradientUnits="userSpaceOnUse"><stop offset="0" stop-color="#fff"/><stop offset="1" stop-color="#fff" stop-opacity=".6864"/></linearGradient><linearGradient id="linear-gradient-3" x1="-111.1918" y1="-187.886" x2="-85.7536" y2="-193.8158" gradientTransform="translate(147.4268 -267.382) scale(1.2267 -1.4478)" gradientUnits="userSpaceOnUse"><stop offset="0" stop-color="#e9b96e"/><stop offset="1" stop-color="#c17d11"/></linearGradient><linearGradient id="linear-gradient-4" x1="6.3912" y1="-510.7756" x2="41.7949" y2="-510.7756" gradientTransform="translate(0 -504) scale(1 -1)" gradientUnits="userSpaceOnUse"><stop offset="0" stop-color="#babdb6"/><stop offset="1" stop-color="#93978d"/></linearGradient><linearGradient id="linear-gradient-5" x1="-100.8864" y1="-201.3479" x2="-100.8864" y2="-194.1581" gradientTransform="translate(147.4268 -276.0481) scale(1.2267 -1.4316)" gradientUnits="userSpaceOnUse"><stop offset="0" stop-color="#fff"/><stop offset="1" stop-color="#fff" stop-opacity="0"/></linearGradient><linearGradient id="linear-gradient-6" x1="-88.5108" y1="2434.5337" x2="-88.5108" y2="2440.4086" gradientTransform="translate(129.9234 -1334.3892) scale(1.1995 .5534)" xlink:href="#linear-gradient-5"/><linearGradient id="linear-gradient-7" x1="205.7244" y1="867.9008" x2="205.502" y2="885.3829" gradientTransform="translate(-1730.0299 -245.6504) rotate(90) scale(1.2271 -1.9992)" gradientUnits="userSpaceOnUse"><stop offset="0" stop-color="#fff"/><stop offset=".5" stop-color="#fff" stop-opacity="0"/><stop offset=".75" stop-color="#fff" stop-opacity=".502"/><stop offset="1" stop-color="#fff" stop-opacity="0"/></linearGradient><linearGradient id="linear-gradient-8" x1="35" y1="47.4989" x2="35" y2="22.5009" gradientUnits="userSpaceOnUse"><stop offset=".5" stop-color="#212121"/><stop offset="1" stop-color="#fff" stop-opacity=".5"/></linearGradient></defs><g id="HOUDINI_ICONS"><g id="layer1"><path id="path4944" d="M48.1553,39.1915c.0045,4.4956-10.9201,8.1413-24.4007,8.1428S-.6579,43.6926-.6623,39.1969c0-.0018,0-.0036,0-.0054-.0045-4.4956,10.9201-8.1413,24.4007-8.1428,13.4806-.0015,24.4125,3.6417,24.417,8.1374v.0054Z" style="fill:url(#radial-gradient); isolation:isolate; opacity:.5696; stroke-width:0px;"/><path id="rect3115" d="M4.0567,12.6048h39.9249l-.0603,25.9186c0,1.6595-1.3519,2.9954-3.0312,2.9954H6.9663c-1.6793,0-3.0312-1.336-3.0312-2.9954l.1215-25.9186Z" style="fill:url(#linear-gradient); stroke:#a0670c; stroke-width:1px;"/><path id="rect4220" d="M5.292,13.8161h37.4189l-.2121,24.758c0,.8904-.7164,1.6071-1.6064,1.6071H6.8378c-.8899,0-1.6064-.7168-1.6064-1.6071l.0606-24.758Z" style="fill:none; isolation:isolate; opacity:.481; stroke:url(#linear-gradient-2); stroke-width:1px;"/><path id="path4162" d="M3.995,12.5954L10.9572,2.0137l25.9129-.1569,7.1966,10.5238-40.0718.2148Z" style="fill:url(#linear-gradient-3); fill-rule:evenodd; stroke:#8f5902; stroke-linejoin:round;"/><path id="path3287" d="M6.5864,11.2537l5.2332-7.9376,24.3372-.1177,5.4094,7.8942-34.9799.1611Z" style="fill:none; stroke:rgba(255,255,255,.502);"/><path id="path3293" d="M23.258,2.2165v10.1101" style="fill:none; stroke:#8f5902; stroke-width:1px;"/><path id="path3352" d="M8.8076,5.2706h30.4535l2.0338,3.0099H6.8912l1.9164-3.0099Z" style="fill:rgba(211,215,207,.502); fill-rule:evenodd; stroke:url(#linear-gradient-4); stroke-width:1px;"/><path id="path3295" d="M21.0758,2.0941l-1.5458,9.9764v9.3896c2.6975-.2912,5.395-3.8016,8.0925-3.2277v-6.7488l-2.0913-9.4874-4.4554.0978Z" style="fill:rgba(211,215,207,.502); fill-rule:evenodd; stroke:#babdb6; stroke-width:1px;"/><path id="path3297" d="M21.0758,1.9054l-1.3639,10.8233h7.9106l-2.0913-10.8233h-4.4554Z" style="fill:url(#linear-gradient-5); fill-rule:evenodd; stroke-width:0px;"/><path id="path3311" d="M20.113,15.7301l-.3556-3.0924h8.0015l-.3556,3.4562-7.2903-.3638Z" style="fill:url(#linear-gradient-6); fill-rule:evenodd; stroke-width:0px;"/><path id="path3354" d="M38.5464,5.2251l-30.0752-.3638-2.3766,3.7291,34.8486-.1819-2.3968-3.1833Z" style="fill:url(#linear-gradient-7); fill-rule:evenodd; stroke-width:0px;"/></g></g><g id="SYMBOLS"><rect x="22" y="22" width="26" height="26" rx="6.5692" ry="6.5692" style="opacity:.07; stroke-width:0px;"/><path d="M28.5692,22.2505h12.8623c3.487,0,6.318,2.831,6.318,6.318v12.863c0,3.487-2.831,6.318-6.318,6.318h-12.863c-3.487,0-6.318-2.831-6.318-6.318v-12.8623c0-3.4874,2.8313-6.3187,6.3187-6.3187Z" style="opacity:.15; stroke-width:0px;"/><path d="M22.5011,28.5684v12.863c0,3.4888,2.1236,6.0676,6.0682,6.0674l12.8622.0002c3.9438-.0002,6.0674-2.5788,6.0674-6.0676v-12.863c0-3.4888-2.1236-6.0673-6.0674-6.0674h-12.8622c-3.9446,0-6.0682,2.5786-6.0682,6.0674Z" style="fill:#212121; stroke-width:0px;"/><path d="M33.4533,44.52c-2.9515,0-5.7308-1.1504-7.826-3.2392l-.3552-.3548,3.1357-3.1355c-1.0457-1.212-1.6189-2.7426-1.6189-4.3372,0-3.6747,2.9897-6.6644,6.6644-6.6644,1.5937,0,3.1242.573,4.3368,1.6186l3.1362-3.136.3543.3562c2.0889,2.0952,3.2395,4.8745,3.2395,7.8255,0,6.1022-4.9645,11.0667-11.0667,11.0667ZM29.8241,37.791c1.02.8563,2.2985,1.3246,3.6292,1.3246,3.1223,0,5.6623-2.54,5.6623-5.6623,0-1.3304-.4685-2.609-1.3246-3.6292l-7.967,7.967Z" style="opacity:.05; stroke-width:0px;"/><path d="M41.1029,25.8044l-.1771-.1781-3.1259,3.1259c-1.19-1.1022-2.7209-1.7128-4.3466-1.7128-3.5367,0-6.4139,2.8771-6.4139,6.4139,0,1.6258.6104,3.1571,1.713,4.3469l-3.1258,3.1258.1776.1771c2.048,2.0419,4.7644,3.1663,7.6491,3.1663,5.964,0,10.8162-4.852,10.8162-10.8162,0-2.8845-1.1247-5.6006-3.1666-7.6489ZM33.4533,39.3661c-1.4951,0-2.9015-.5571-3.9953-1.5633l8.3448-8.3447c1.0063,1.0939,1.5633,2.5004,1.5633,3.9952,0,3.2603-2.6526,5.9128-5.9128,5.9128Z" style="opacity:.07; stroke-width:0px;"/><path d="M37.8087,29.0979l-8.7108,8.7108c-1.1153-1.1153-1.8079-2.6532-1.8079-4.3554,0-3.4045,2.7588-6.1633,6.1633-6.1633,1.7023,0,3.2402.6926,4.3554,1.8079Z" style="fill:#f5f5f5; stroke-width:0px;"/><path d="M40.9256,25.981l-3.1141,3.1142c1.1154,1.1154,1.8052,2.6561,1.8052,4.3581,0,3.4039-2.7594,6.1633-6.1633,6.1633-1.702,0-3.2428-.6898-4.3581-1.8052l-3.1141,3.1141c1.9136,1.9077,4.555,3.0934,7.4723,3.0934,5.8346,0,10.5657-4.7311,10.5657-10.5657,0-2.9173-1.1857-5.5587-3.0934-7.4723Z" style="fill:#f5f5f5; stroke-width:0px;"/><path d="M37.8087,29.0979l-8.7108,8.7108c-1.1153-1.1153-1.8079-2.6532-1.8079-4.3554,0-3.4045,2.7588-6.1633,6.1633-6.1633,1.7023,0,3.2402.6926,4.3554,1.8079Z" style="fill:#f5f5f5; stroke-width:0px;"/><path d="M41.4315,22.5009h-12.8622c-3.9446,0-6.0682,2.5786-6.0682,6.0674v12.863c0,3.4887,2.1236,6.0676,6.0682,6.0674h12.8622c3.9438,0,6.0674-2.5787,6.0674-6.0674v-12.863c0-3.4888-2.1236-6.0673-6.0674-6.0674ZM47.2484,41.4315c0,3.5881-2.2288,5.8169-5.8169,5.8169h-12.8623c-3.5884,0-5.8177-2.2288-5.8177-5.8169v-12.863c0-3.5881,2.2293-5.8169,5.8177-5.8169h12.8623c3.5881,0,5.8169,2.2288,5.8169,5.8169v12.863Z" style="fill:url(#linear-gradient-8); opacity:.25; stroke-width:0px;"/></g></svg>