<?xml version="1.0" encoding="UTF-8"?><svg id="Layer_1" xmlns="http://www.w3.org/2000/svg" width="48" height="48" xmlns:xlink="http://www.w3.org/1999/xlink" viewBox="0 0 48 48"><defs><linearGradient id="linear-gradient" x1="10.1704" y1="3.9266" x2="35.9634" y2="45.8924" gradientUnits="userSpaceOnUse"><stop offset="0" stop-color="#32bdef"/><stop offset="1" stop-color="#1ea2e4"/></linearGradient><linearGradient id="linear-gradient-2" x1="18.5185" y1="2.0285" x2="29.3987" y2="19.7309" gradientUnits="userSpaceOnUse"><stop offset="0" stop-color="#fff"/><stop offset=".242" stop-color="#f2f2f2"/><stop offset="1" stop-color="#ccc"/></linearGradient><linearGradient id="linear-gradient-3" x1="17.2963" y1="23.6262" x2="30.793" y2="45.5855" gradientTransform="translate(48 69.0663) rotate(-180)" xlink:href="#linear-gradient-2"/><linearGradient id="linear-gradient-4" x1="26.9049" y1="7.6536" x2="31.8259" y2="15.6602" gradientUnits="userSpaceOnUse"><stop offset="0" stop-color="#464646"/><stop offset="1" stop-color="#212121"/></linearGradient><linearGradient id="linear-gradient-5" x1="7.3347" y1="38.4912" x2="8.9955" y2="41.1933" xlink:href="#linear-gradient-4"/><linearGradient id="linear-gradient-6" x1="39.1083" y1="38.4912" x2="40.769" y2="41.1933" xlink:href="#linear-gradient-4"/></defs><path d="M36.3485,5H7.0924c-1.1556,0-2.0924.9368-2.0924,2.0924v33.8152c0,1.1556.9368,2.0924,2.0924,2.0924h33.8152c1.1556,0,2.0924-.9368,2.0924-2.0924V11.6515c0-.2775-.1102-.5436-.3064-.7398l-5.6053-5.6053c-.1962-.1962-.4623-.3064-.7398-.3064Z" style="fill:url(#linear-gradient); stroke-width:0px;"/><path d="M9.3483,5h25.8284v10.5529c0,1.7322-1.4064,3.1386-3.1386,3.1386H12.487c-1.7322,0-3.1386-1.4064-3.1386-3.1386V5h0Z" style="opacity:.05; stroke-width:0px;"/><path d="M34.7205,5H12.8667v10.6304c0,1.4426,1.1734,2.6155,2.6155,2.6155h16.6228c1.4421,0,2.6155-1.1729,2.6155-2.6155V5Z" style="opacity:.07; stroke-width:0px;"/><path d="M13.3897,5h20.8078v10.6304c0,1.1548-.9376,2.0924-2.0924,2.0924H15.4821c-1.1548,0-2.0924-.9376-2.0924-2.0924V5h0Z" style="fill:url(#linear-gradient-2); stroke-width:0px;"/><rect x="11.4612" y="26.0663" width="25.0776" height="16.9337" rx="2.0924" ry="2.0924" transform="translate(48 69.0663) rotate(180)" style="fill:url(#linear-gradient-3); stroke-width:0px;"/><rect x="27.1386" y="7.222" width="4.1461" height="8.3696" style="fill:url(#linear-gradient-4); stroke-width:0px;"/><circle cx="8.1134" cy="39.7574" r="2.6155" style="opacity:.05; stroke-width:0px;"/><circle cx="8.1134" cy="39.7574" r="2.0924" style="opacity:.07; stroke-width:0px;"/><circle cx="39.8868" cy="39.7574" r="2.6155" style="opacity:.05; stroke-width:0px;"/><circle cx="39.8868" cy="39.7574" r="2.0924" style="opacity:.07; stroke-width:0px;"/><circle cx="8.1132" cy="39.7578" r="1.5693" style="fill:url(#linear-gradient-5); stroke-width:0px;"/><circle cx="39.8868" cy="39.7578" r="1.5693" style="fill:url(#linear-gradient-6); stroke-width:0px;"/></svg>