<?xml version="1.0" encoding="UTF-8"?><svg xmlns="http://www.w3.org/2000/svg" width="48" height="48" xmlns:xlink="http://www.w3.org/1999/xlink" viewBox="0 0 48 48"><defs><linearGradient id="linear-gradient" x1="28.4538" y1="24.3491" x2="41.5462" y2="45.6509" gradientUnits="userSpaceOnUse"><stop offset="0" stop-color="#464646"/><stop offset="1" stop-color="#212121"/></linearGradient><linearGradient id="linear-gradient-2" x1="28.5871" y1="24.5661" x2="41.4129" y2="45.4339" xlink:href="#linear-gradient"/><linearGradient id="linear-gradient-3" x1="31.8578" y1="29.6406" x2="40.6003" y2="43.8649" gradientUnits="userSpaceOnUse"><stop offset="0" stop-color="#fff"/><stop offset=".242" stop-color="#f2f2f2"/><stop offset="1" stop-color="#ccc"/></linearGradient><linearGradient id="linear-gradient-4" x1="35" y1="47.5" x2="35" y2="22.5" gradientUnits="userSpaceOnUse"><stop offset=".5" stop-color="#212121"/><stop offset="1" stop-color="#fff" stop-opacity=".5"/></linearGradient></defs><g id="HOUDINI_ICONS"><g id="g9507"><path id="path8997" d="M26.8051,20.7857V1.9915l15.9483,6.115v18.5735l-15.9483-5.8942Z" style="fill:#7dd3f7; stroke:#fff; stroke-miterlimit:3.9523; stroke-width:2px;"/><path id="path8995" d="M15.739,18.5751l-.0551-14.8931,21.8374,8.328v25.2952l-21.7823-8.8238v-9.9063Z" style="fill:#34c6f3; stroke:#fff; stroke-miterlimit:3.9523; stroke-width:2px;"/><path id="path8989" d="M5.8276,6.9512l25.8183,9.4127v29.6463l-25.8925-9.4127.0742-29.6463Z" style="fill:#2091d0; stroke:#fff; stroke-miterlimit:3.9523; stroke-width:2px;"/><path id="path8993" d="M12.3544,16.7403l13.0904,4.9189v14.6988l-13.1481-4.861.0577-14.7567Z" style="fill:#7dd3f7; stroke:#fff; stroke-miterlimit:3.9523; stroke-width:2px;"/></g></g><g id="SYMBOLS"><circle cx="35" cy="35" r="12.75" style="opacity:.07; stroke-width:0px;"/><circle id="background_round" cx="35" cy="35" r="12.5" style="fill:url(#linear-gradient); stroke-width:0px;"/><circle cx="35" cy="35" r="12.25" style="fill:url(#linear-gradient-2); stroke-width:0px;"/><path id="shadow" d="M34.9565,46c-2.9453,0-5.7188-1.1479-7.8096-3.2324l-.3545-.354,3.1292-3.1289c-1.0435-1.2095-1.6155-2.7368-1.6155-4.3281,0-3.667,2.9834-6.6504,6.6504-6.6504,1.5903,0,3.1177.5718,4.3276,1.6152l3.1296-3.1294.3535.3555c2.0845,2.0908,3.2327,4.8643,3.2327,7.8091,0,6.0894-4.9541,11.0435-11.0435,11.0435ZM31.335,39.2852c1.0178.8545,2.2937,1.3218,3.6216,1.3218,3.1157,0,5.6504-2.5347,5.6504-5.6504,0-1.3276-.4675-2.6035-1.3218-3.6216l-7.9502,7.9502Z" style="opacity:.05; stroke-width:0px;"/><path id="shadow-2" d="M42.5901,27.3237l-.1768-.1777-3.1193,3.1193c-1.1875-1.0999-2.7152-1.7092-4.3375-1.7092-3.5293,0-6.4004,2.8711-6.4004,6.4004,0,1.6224.6091,3.1505,1.7094,4.3378l-3.1193,3.1193.1772.1768c2.0437,2.0376,4.7544,3.1597,7.6331,3.1597,5.9514,0,10.7935-4.8418,10.7935-10.7935,0-2.8784-1.1223-5.5889-3.1599-7.6328ZM34.9565,40.8569c-1.492,0-2.8954-.5559-3.9868-1.5601l8.3272-8.3271c1.0042,1.0916,1.56,2.4952,1.56,3.9868,0,3.2534-2.647,5.9004-5.9004,5.9004Z" style="opacity:.07; stroke-width:0px;"/><path id="logo" d="M45.5,34.9566c0,5.8223-4.7211,10.5434-10.5434,10.5434-2.9111,0-5.547-1.1832-7.4566-3.0869l3.1076-3.1076c1.113,1.113,2.6506,1.8014,4.349,1.8014,3.3968,0,6.1503-2.7536,6.1503-6.1503,0-1.6984-.6884-3.2359-1.8014-4.349l3.1076-3.1076c1.9037,1.9095,3.0869,4.5454,3.0869,7.4566ZM34.9566,28.8062c-3.3973,0-6.1503,2.753-6.1503,6.1503,0,1.6986.6912,3.2333,1.8041,4.3462l8.6925-8.6925c-1.1129-1.1129-2.6476-1.8041-4.3462-1.8041Z" style="fill:url(#linear-gradient-3); stroke-width:0px;"/><path d="M35,22.5c-6.9036,0-12.5,5.5964-12.5,12.5s5.5964,12.5,12.5,12.5,12.5-5.5964,12.5-12.5-5.5964-12.5-12.5-12.5ZM35,47.25c-6.7546,0-12.25-5.4951-12.25-12.25s5.4954-12.25,12.25-12.25,12.25,5.4951,12.25,12.25-5.4954,12.25-12.25,12.25Z" style="fill:url(#linear-gradient-4); opacity:.5; stroke-width:0px;"/><circle cx="35" cy="35" r="13" style="opacity:.05; stroke-width:0px;"/></g></svg>