<?xml version="1.0" encoding="UTF-8"?><svg xmlns="http://www.w3.org/2000/svg" width="48" height="48" xmlns:xlink="http://www.w3.org/1999/xlink" viewBox="0 0 48 48"><defs><radialGradient id="radial-gradient" cx="26.6429" cy="26.1786" fx="26.6429" fy="26.1786" r="13" gradientUnits="userSpaceOnUse"><stop offset="0" stop-color="#fff"/><stop offset="1" stop-color="#f5f5f5"/></radialGradient><linearGradient id="linear-gradient" x1="35" y1="46.1429" x2="35" y2="23.8571" gradientUnits="userSpaceOnUse"><stop offset=".5" stop-color="#212121"/><stop offset="1" stop-color="#fff" stop-opacity=".5"/></linearGradient><radialGradient id="radial-gradient-2" cx="-1002.2954" cy="1060.9374" fx="-1002.2954" fy="1060.9374" r="29.9382" gradientTransform="translate(-917.6949 -972.2324) rotate(-180) scale(.9402 -.9402)" gradientUnits="userSpaceOnUse"><stop offset="0" stop-color="#fff"/><stop offset=".4051" stop-color="#929292"/><stop offset=".816" stop-color="#2a2a2a"/><stop offset=".9747" stop-color="#000"/></radialGradient></defs><g id="HOUDINI_ICONS"><g id="layer1"><path id="path4046" d="M5.6564,35.1942l19.2925-11.0515" style="fill:none; stroke:#b9bfbb; stroke-width:1.8797px;"/><path id="path4030" d="M10.9729,31.9603l-5.7657,3.3289" style="fill:none; stroke:#545a56; stroke-linecap:round; stroke-linejoin:round; stroke-width:2.8195px;"/><path id="path4050" d="M25.0238,2.1556v21.9059" style="fill:none; stroke:#b9bfbb; stroke-width:1.8797px;"/><path id="path4034" d="M24.9764,1.6809v7.0254" style="fill:none; stroke:#545a56; stroke-linecap:round; stroke-linejoin:round; stroke-width:2.8195px;"/><path id="path3910" d="M25.0175,24.1461l19.089,11.1431" style="fill:none; stroke:#b9bfbb; stroke-width:1.8797px;"/><path id="path4032" d="M44.4387,35.2801l-5.8219-3.3613" style="fill:none; stroke:#545a56; stroke-linecap:round; stroke-linejoin:round; stroke-width:2.8195px;"/><path id="path4056" d="M25.162,24.1135v22.0584l18.9322-10.9305V13.2659l-18.9322,10.8475Z" style="fill:rgba(184,184,184,.35); stroke-width:0px;"/><path id="path4058" d="M5.2316,12.8507L24.6948,1.6918l19.4633,11.107-19.2038,11.0032L5.2316,12.8507Z" style="fill:rgba(255,255,255,.35); stroke-width:0px;"/><path id="path4060" d="M24.6309,24.1135v22.0584l-18.9322-10.9305V13.2659l18.9322,10.8475Z" style="fill:rgba(234,234,234,.35); stroke-width:0px;"/><path id="path3937" d="M25.0238,24.0616v21.9556" style="fill:none; stroke:#b9bfbb; stroke-width:1.8797px;"/><path id="path3140" d="M5.6564,12.8837v22.2156l19.2752,11.1285,19.1368-11.0486V13.0736L24.7505,1.9204,5.6564,12.8837Z" style="fill:none; stroke:#b9bfbb; stroke-width:1.8797px;"/><path id="path4054" d="M5.5615,12.7887l19.456,11.3573" style="fill:none; stroke:#b9bfbb; stroke-width:1.8797px;"/><path id="path3929" d="M24.9489,24.1427l19.1575-10.9742" style="fill:none; stroke:#b9bfbb; stroke-width:1.8797px;"/><path id="path3945" d="M5.2766,19.3395v-6.3609l6.048-3.4918" style="fill:none; stroke:#545a56; stroke-linecap:round; stroke-linejoin:round; stroke-width:2.8195px;"/><path id="path4014" d="M11.4002,16.1116l-5.7657-3.3289" style="fill:none; stroke:#545a56; stroke-linecap:round; stroke-linejoin:round; stroke-width:2.8195px;"/><path id="path3947" d="M19.3275,4.624l5.4754-3.1612,5.9301,3.4237" style="fill:none; stroke:#545a56; stroke-linecap:round; stroke-linejoin:round; stroke-width:2.8195px;"/><path id="path3966" d="M38.695,9.371l5.6604,3.268v6.653" style="fill:none; stroke:#545a56; stroke-linecap:round; stroke-linejoin:round; stroke-width:2.8195px;"/><path id="path4022" d="M44.4387,12.8362l-5.8219,3.3613" style="fill:none; stroke:#545a56; stroke-linecap:round; stroke-linejoin:round; stroke-width:2.8195px;"/><path id="path3974" d="M44.4862,28.5011v6.6457l-5.7727,3.3329" style="fill:none; stroke:#545a56; stroke-linecap:round; stroke-linejoin:round; stroke-width:2.8195px;"/><path id="path3982" d="M30.4828,43.264l-5.6028,3.2348-5.6252-3.2477" style="fill:none; stroke:#545a56; stroke-linecap:round; stroke-linejoin:round; stroke-width:2.8195px;"/><path id="path4042" d="M24.9764,38.8019v7.0254" style="fill:none; stroke:#545a56; stroke-linecap:round; stroke-linejoin:round; stroke-width:2.8195px;"/><path id="path3990" d="M11.0204,38.5645l-5.8645-3.3859v-6.7725" style="fill:none; stroke:#545a56; stroke-linecap:round; stroke-linejoin:round; stroke-width:2.8195px;"/><path id="path3998" d="M19.1377,20.6686l5.7823,3.3384,5.7642-3.3279" style="fill:none; stroke:#545a56; stroke-linecap:round; stroke-linejoin:round; stroke-width:2.8195px;"/><path id="path4006" d="M24.9764,23.9915v6.5982" style="fill:none; stroke:#545a56; stroke-linecap:round; stroke-linejoin:round; stroke-width:2.8195px;"/></g></g><g id="SYMBOLS"><g id="jellyfish"><g id="badge"><circle id="jf_rim" cx="35" cy="35" r="13" style="fill:url(#radial-gradient); stroke-width:0px;"/><circle id="inner_rim" cx="35" cy="35" r="11.1429" style="fill:#212121; stroke-width:0px;"/><path d="M35.1479,44.403c-2.4535,0-4.7638-.9562-6.5054-2.6926l-.2953-.2949,2.6066-2.6064c-.8692-1.0075-1.3457-2.2798-1.3457-3.6054,0-3.0546,2.4852-5.5398,5.5398-5.5398,1.3248,0,2.597.4763,3.605,1.3455l2.607-2.6068.2945.2961c1.7364,1.7417,2.6928,4.052,2.6928,6.505,0,5.0725-4.1268,9.1993-9.1993,9.1993ZM32.1311,38.8095c.8479.7118,1.9107,1.101,3.0168,1.101,2.5954,0,4.7068-2.1114,4.7068-4.7068,0-1.1059-.3895-2.1687-1.101-3.0168l-6.6226,6.6226Z" style="opacity:.05; stroke-width:0px;"/><path d="M41.5067,28.8455l-.1472-.1481-2.5984,2.5984c-.9892-.9162-2.2618-1.4237-3.6131-1.4237-2.9399,0-5.3316,2.3916-5.3316,5.3316,0,1.3515.5074,2.6243,1.4239,3.6134l-2.5984,2.5984.1476.1472c1.7024,1.6973,3.9604,2.632,6.3584,2.632,4.9576,0,8.991-4.0333,8.991-8.991,0-2.3977-.9349-4.6556-2.6322-6.3582ZM35.1479,40.1188c-1.2428,0-2.4119-.4631-3.3211-1.2995l6.9366-6.9366c.8365.9093,1.2995,2.0785,1.2995,3.321,0,2.7101-2.2049,4.9151-4.9151,4.9151Z" style="opacity:.07; stroke-width:0px;"/><path d="M38.7684,31.5833l-7.2409,7.2409c-.9271-.9271-1.5028-2.2055-1.5028-3.6204,0-2.83,2.2933-5.1233,5.1233-5.1233,1.415,0,2.6934.5758,3.6204,1.5028Z" style="fill:#f5f5f5; stroke-width:0px;"/><path d="M41.3593,28.9923l-2.5887,2.5887c.9271.9271,1.5006,2.2079,1.5006,3.6227,0,2.8295-2.2938,5.1233-5.1233,5.1233-1.4148,0-2.6956-.5734-3.6227-1.5006l-2.5887,2.5887c1.5907,1.5858,3.7864,2.5714,6.2114,2.5714,4.85,0,8.7828-3.9327,8.7828-8.7828,0-2.425-.9856-4.6207-2.5714-6.2114Z" style="fill:#f5f5f5; stroke-width:0px;"/><path d="M38.7684,31.5833l-7.2409,7.2409c-.9271-.9271-1.5028-2.2055-1.5028-3.6204,0-2.83,2.2933-5.1233,5.1233-5.1233,1.415,0,2.6934.5758,3.6204,1.5028Z" style="fill:#f5f5f5; stroke-width:0px;"/><path d="M35,23.8571c-6.1541,0-11.1429,4.9888-11.1429,11.1429s4.9888,11.1429,11.1429,11.1429,11.1429-4.9888,11.1429-11.1429-4.9888-11.1429-11.1429-11.1429ZM35,45.2143c-5.6322,0-10.2143-4.583-10.2143-10.2143s4.5821-10.2143,10.2143-10.2143,10.2143,4.583,10.2143,10.2143-4.5821,10.2143-10.2143,10.2143Z" style="fill:url(#linear-gradient); opacity:.15; stroke-width:0px;"/><circle id="glass" cx="35" cy="35" r="13" style="fill:url(#radial-gradient-2); isolation:isolate; opacity:.25; stroke-width:0px;"/></g></g></g></svg>