<?xml version="1.0" encoding="UTF-8"?><svg id="HOUDINI_ICONS" xmlns="http://www.w3.org/2000/svg" width="48" height="48" xmlns:xlink="http://www.w3.org/1999/xlink" viewBox="0 0 48 48"><defs><linearGradient id="linear-gradient" x1="7.8465" y1="-1.8511" x2="34.4675" y2="40.7514" gradientUnits="userSpaceOnUse"><stop offset="0" stop-color="#32bdef"/><stop offset="1" stop-color="#1ea2e4"/></linearGradient><linearGradient id="linear-gradient-2" x1="23.6811" y1="8.1993" x2="43.2776" y2="39.5603" gradientUnits="userSpaceOnUse"><stop offset="0" stop-color="#fff"/><stop offset=".242" stop-color="#f2f2f2"/><stop offset="1" stop-color="#ccc"/></linearGradient><linearGradient id="linear-gradient-3" x1="17.3896" y1="1.4617" x2="31.2285" y2="23.978" gradientUnits="userSpaceOnUse"><stop offset="0" stop-color="#464646"/><stop offset="1" stop-color="#212121"/></linearGradient><linearGradient id="linear-gradient-4" x1="8.3426" y1="9.2937" x2="8.3426" y2="12.9297" xlink:href="#linear-gradient"/><linearGradient id="linear-gradient-5" x1="18.3868" y1="9.2937" x2="18.3868" y2="12.9297" xlink:href="#linear-gradient"/><linearGradient id="linear-gradient-6" x1="13.3647" y1="9.2937" x2="13.3647" y2="12.9297" xlink:href="#linear-gradient"/></defs><rect x="4" y="8" width="40" height="32" rx="2" ry="2" style="fill:url(#linear-gradient); stroke-width:0px;"/><path d="M44,38V10c0-1.1046-.8954-2-2-2h-19v32h19c1.1046,0,2-.8954,2-2Z" style="opacity:.05; stroke-width:0px;"/><path d="M44,38V10c0-1.1046-.8954-2-2-2h-18.5v32h18.5c1.1046,0,2-.8954,2-2Z" style="opacity:.07; stroke-width:0px;"/><path d="M24,8h18c1.1038,0,2,.8962,2,2v28c0,1.1038-.8962,2-2,2h-18V8h0Z" style="fill:url(#linear-gradient-2); stroke-width:0px;"/><path d="M6,8h36c1.1038,0,2,.8962,2,2v5H4v-5c0-1.1038.8962-2,2-2Z" style="fill:url(#linear-gradient-3); stroke-width:0px;"/><path d="M18.3866,8.8057c-1.1483,0-2.1238.7253-2.511,1.739-.3872-1.0137-1.3627-1.739-2.511-1.739s-2.1238.7253-2.511,1.739c-.3872-1.0137-1.3627-1.739-2.511-1.739-1.4858,0-2.6943,1.209-2.6943,2.6943s1.2085,2.6943,2.6943,2.6943c1.1483,0,2.1238-.7253,2.511-1.739.3872,1.0137,1.3627,1.739,2.511,1.739s2.1238-.7253,2.511-1.739c.3872,1.0137,1.3627,1.739,2.511,1.739,1.4858,0,2.6948-1.209,2.6948-2.6943s-1.209-2.6943-2.6948-2.6943Z" style="opacity:.05; stroke-width:0px;"/><g style="opacity:.07;"><circle cx="8.3426" cy="11.5" r="2.1943" style="stroke-width:0px;"/><path d="M18.3866,13.6943c-1.21,0-2.1943-.9844-2.1943-2.1943s.9844-2.1943,2.1943-2.1943,2.1948.9844,2.1948,2.1943-.9844,2.1943-2.1948,2.1943Z" style="stroke-width:0px;"/><circle cx="13.3646" cy="11.5" r="2.1943" style="stroke-width:0px;"/></g><circle cx="8.3426" cy="11.5" r="1.6944" style="fill:url(#linear-gradient-4); stroke-width:0px;"/><circle cx="18.3868" cy="11.5" r="1.6944" style="fill:url(#linear-gradient-5); stroke-width:0px;"/><circle cx="13.3647" cy="11.5" r="1.6944" style="fill:url(#linear-gradient-6); stroke-width:0px;"/></svg>