<?xml version="1.0" encoding="UTF-8"?><svg xmlns="http://www.w3.org/2000/svg" width="48" height="48" xmlns:xlink="http://www.w3.org/1999/xlink" viewBox="0 0 48 48"><defs><linearGradient id="linear-gradient" x1="396.375" y1="-1345.3023" x2="440.1607" y2="-1361.4451" gradientTransform="translate(-124.4297 -1183.773) rotate(10.4224) scale(.8556 -.8555)" gradientUnits="userSpaceOnUse"><stop offset="0" stop-color="#fff"/><stop offset="1" stop-color="#d3d7cf"/></linearGradient><linearGradient id="linear-gradient-2" x1="193.7452" y1="-1593.5845" x2="222.8656" y2="-1623.5845" gradientTransform="translate(-154.572 -1322.4083) scale(.8352 -.8352)" gradientUnits="userSpaceOnUse"><stop offset="0" stop-color="#555753"/><stop offset="1" stop-color="#000"/></linearGradient><linearGradient id="linear-gradient-3" x1="188.5167" y1="-1597.2253" x2="224.0769" y2="-1613.5021" gradientTransform="translate(-154.572 -1322.4083) scale(.8352 -.8352)" gradientUnits="userSpaceOnUse"><stop offset="0" stop-color="#729fcf"/><stop offset="1" stop-color="#336397"/></linearGradient><linearGradient id="linear-gradient-4" x1="471.2005" y1="-1256.9226" x2="514.9862" y2="-1273.0655" gradientTransform="translate(-120.4243 -1128.1149) rotate(14.1407) scale(.8556 -.8555)" xlink:href="#linear-gradient"/><linearGradient id="linear-gradient-5" x1="285.5117" y1="-1518.4124" x2="314.6322" y2="-1548.4124" gradientTransform="translate(-141.5126 -1268.4132) rotate(3.7182) scale(.8352 -.8352)" xlink:href="#linear-gradient-2"/><linearGradient id="linear-gradient-6" x1="286.6614" y1="-1528.635" x2="318.6832" y2="-1541.3734" gradientTransform="translate(-146.757 -1273.4798) rotate(3.7182) scale(.8352 -.8352)" gradientUnits="userSpaceOnUse"><stop offset="0" stop-color="#91b4da"/><stop offset="1" stop-color="#336397"/></linearGradient><linearGradient id="linear-gradient-7" x1="522.0927" y1="-1189.477" x2="565.8784" y2="-1205.6199" gradientTransform="translate(-118.2099 -1086.4972) rotate(16.8534) scale(.8556 -.8555)" xlink:href="#linear-gradient"/><linearGradient id="linear-gradient-8" x1="349.2857" y1="-1459.8951" x2="378.4061" y2="-1489.8951" gradientTransform="translate(-132.6345 -1227.6363) rotate(6.4309) scale(.8352 -.8352)" xlink:href="#linear-gradient-2"/><linearGradient id="linear-gradient-9" x1="357.5138" y1="-1475.2234" x2="392.7202" y2="-1490.1733" gradientTransform="translate(-142.8407 -1238.1587) rotate(6.4309) scale(.8352 -.8352)" gradientUnits="userSpaceOnUse"><stop offset="0" stop-color="#a6c2e1"/><stop offset="1" stop-color="#336397"/></linearGradient><linearGradient id="linear-gradient-10" x1="28.4538" y1="24.3491" x2="41.5462" y2="45.6509" gradientUnits="userSpaceOnUse"><stop offset="0" stop-color="#464646"/><stop offset="1" stop-color="#212121"/></linearGradient><linearGradient id="linear-gradient-11" x1="28.5871" y1="24.5661" x2="41.4129" y2="45.4339" xlink:href="#linear-gradient-10"/><linearGradient id="linear-gradient-12" x1="31.8578" y1="29.6406" x2="40.6003" y2="43.8649" gradientUnits="userSpaceOnUse"><stop offset="0" stop-color="#fff"/><stop offset=".242" stop-color="#f2f2f2"/><stop offset="1" stop-color="#ccc"/></linearGradient><linearGradient id="linear-gradient-13" x1="35" y1="47.5" x2="35" y2="22.5" gradientUnits="userSpaceOnUse"><stop offset=".5" stop-color="#212121"/><stop offset="1" stop-color="#fff" stop-opacity=".5"/></linearGradient></defs><g id="HOUDINI_ICONS"><g id="layer1"><path id="path5553" d="M.2776,10.0768L25.1905.4767l11.6383,29.1404-25.6482,9.5407L.2776,10.0768Z" style="fill:url(#linear-gradient); fill-rule:evenodd; stroke:url(#linear-gradient-2); stroke-width:.75px;"/><path id="path5597" d="M1.3631,10.6806L24.7128,1.6822l10.9077,27.3132-24.0389,8.9427L1.3631,10.6806Z" style="fill:none; stroke:#fff; stroke-width:1px;"/><path id="rect22923" d="M2.6385,11.404L24.0668,3.1833l8.4194,21.3569-21.6073,8.8173L2.6385,11.404Z" style="fill:url(#linear-gradient-3); stroke:#204a87; stroke-linejoin:bevel; stroke-width:.5px;"/><path id="path23445" d="M7.1525,13.628l25.483-7.9643,9.724,29.8338-26.213,7.8573L7.1525,13.628Z" style="fill:url(#linear-gradient-4); fill-rule:evenodd; stroke:url(#linear-gradient-5); stroke-width:.75px;"/><path id="path23447" d="M8.1966,14.3009l23.8841-7.4652,9.1135,27.9631-24.5683,7.365L8.1966,14.3009Z" style="fill:none; stroke:#fff; stroke-width:1px;"/><path id="path23449" d="M9.4224,15.1056l21.9164-6.8138,7.0166,21.858-22.1336,7.3975-6.7993-22.4417Z" style="fill:url(#linear-gradient-6); stroke:#204a87; stroke-linejoin:bevel; stroke-width:.5px;"/><path id="path23457" d="M13.5899,17.4041l25.8314-6.7493,8.3011,30.2606-26.5555,6.6079-7.5771-30.1192Z" style="fill:url(#linear-gradient-7); fill-rule:evenodd; stroke:url(#linear-gradient-8); stroke-width:.75px;"/><path id="path23459" d="M14.6009,18.1257l24.2107-6.3265,7.7798,28.3631-24.8893,6.194-7.1012-28.2306Z" style="fill:none; stroke:#fff; stroke-width:1px;"/><path id="path23461" d="M15.7872,18.9875l22.2143-5.7689,5.9743,22.1656-22.459,6.3417-5.7296-22.7383Z" style="fill:url(#linear-gradient-9); stroke:#204a87; stroke-linejoin:bevel; stroke-width:.5px;"/></g></g><g id="SYMBOLS"><circle cx="35" cy="35" r="12.75" style="opacity:.07; stroke-width:0px;"/><circle id="background_round" cx="35" cy="35" r="12.5" style="fill:url(#linear-gradient-10); stroke-width:0px;"/><circle cx="35" cy="35" r="12.25" style="fill:url(#linear-gradient-11); stroke-width:0px;"/><path id="shadow" d="M34.9565,46c-2.9453,0-5.7188-1.1479-7.8096-3.2324l-.3545-.354,3.1292-3.1289c-1.0435-1.2095-1.6155-2.7368-1.6155-4.3281,0-3.667,2.9834-6.6504,6.6504-6.6504,1.5903,0,3.1177.5718,4.3276,1.6152l3.1296-3.1294.3535.3555c2.0845,2.0908,3.2327,4.8643,3.2327,7.8091,0,6.0894-4.9541,11.0435-11.0435,11.0435ZM31.335,39.2852c1.0178.8545,2.2937,1.3218,3.6216,1.3218,3.1157,0,5.6504-2.5347,5.6504-5.6504,0-1.3276-.4675-2.6035-1.3218-3.6216l-7.9502,7.9502Z" style="opacity:.05; stroke-width:0px;"/><path id="shadow-2" d="M42.5901,27.3237l-.1768-.1777-3.1193,3.1193c-1.1875-1.0999-2.7152-1.7092-4.3375-1.7092-3.5293,0-6.4004,2.8711-6.4004,6.4004,0,1.6224.6091,3.1505,1.7094,4.3378l-3.1193,3.1193.1772.1768c2.0437,2.0376,4.7544,3.1597,7.6331,3.1597,5.9514,0,10.7935-4.8418,10.7935-10.7935,0-2.8784-1.1223-5.5889-3.1599-7.6328ZM34.9565,40.8569c-1.492,0-2.8954-.5559-3.9868-1.5601l8.3272-8.3271c1.0042,1.0916,1.56,2.4952,1.56,3.9868,0,3.2534-2.647,5.9004-5.9004,5.9004Z" style="opacity:.07; stroke-width:0px;"/><path id="logo" d="M45.5,34.9566c0,5.8223-4.7211,10.5434-10.5434,10.5434-2.9111,0-5.547-1.1832-7.4566-3.0869l3.1076-3.1076c1.113,1.113,2.6506,1.8014,4.349,1.8014,3.3968,0,6.1503-2.7536,6.1503-6.1503,0-1.6984-.6884-3.2359-1.8014-4.349l3.1076-3.1076c1.9037,1.9095,3.0869,4.5454,3.0869,7.4566ZM34.9566,28.8062c-3.3973,0-6.1503,2.753-6.1503,6.1503,0,1.6986.6912,3.2333,1.8041,4.3462l8.6925-8.6925c-1.1129-1.1129-2.6476-1.8041-4.3462-1.8041Z" style="fill:url(#linear-gradient-12); stroke-width:0px;"/><path d="M35,22.5c-6.9036,0-12.5,5.5964-12.5,12.5s5.5964,12.5,12.5,12.5,12.5-5.5964,12.5-12.5-5.5964-12.5-12.5-12.5ZM35,47.25c-6.7546,0-12.25-5.4951-12.25-12.25s5.4954-12.25,12.25-12.25,12.25,5.4951,12.25,12.25-5.4954,12.25-12.25,12.25Z" style="fill:url(#linear-gradient-13); opacity:.5; stroke-width:0px;"/><circle cx="35" cy="35" r="13" style="opacity:.05; stroke-width:0px;"/></g></svg>