<?xml version="1.0" encoding="UTF-8"?><svg xmlns="http://www.w3.org/2000/svg" width="48" height="48" xmlns:xlink="http://www.w3.org/1999/xlink" viewBox="0 0 48 48"><defs><radialGradient id="radial-gradient" cx="8.5714" cy="7.7143" fx="8.5714" fy="7.7143" r="24" gradientUnits="userSpaceOnUse"><stop offset="0" stop-color="#fff"/><stop offset="1" stop-color="#f5f5f5"/></radialGradient><linearGradient id="linear-gradient" x1="24" y1="44.5714" x2="24" y2="3.4286" gradientUnits="userSpaceOnUse"><stop offset=".5" stop-color="#212121"/><stop offset="1" stop-color="#fff" stop-opacity=".5"/></linearGradient><radialGradient id="radial-gradient-2" cx="-1090.664" cy="1040.4729" fx="-1090.664" fy="1040.4729" r="55.2704" gradientTransform="translate(-1020.5255 -972.2324) rotate(-180) scale(.9402 -.9402)" gradientUnits="userSpaceOnUse"><stop offset="0" stop-color="#fff"/><stop offset=".4051" stop-color="#929292"/><stop offset=".816" stop-color="#2a2a2a"/><stop offset=".9747" stop-color="#000"/></radialGradient><radialGradient id="radial-gradient-3" cx="26.6429" cy="26.1786" fx="26.6429" fy="26.1786" r="13" xlink:href="#radial-gradient"/><linearGradient id="linear-gradient-2" x1="35" y1="46.1429" x2="35" y2="23.8571" xlink:href="#linear-gradient"/><radialGradient id="radial-gradient-4" cx="-1111.6664" cy="1060.9374" fx="-1111.6664" fy="1060.9374" r="29.9382" xlink:href="#radial-gradient-2"/></defs><g id="HOUDINI_ICONS"><g id="jellyfish"><g id="badge"><circle id="jf_rim" cx="24" cy="24" r="24" style="fill:url(#radial-gradient); stroke-width:0px;"/><circle id="inner_rim" cx="24" cy="24" r="20.5714" style="fill:#212121; stroke-width:0px;"/><path id="path11735" d="M24.6029,7.9885c2.8801-.6332,5.3401,2.9572,3.7368,5.4448-1.3285,2.6757-5.6817,2.3158-6.5795-.5264-.8687-2.1036.6201-4.6148,2.8427-4.9184Z" style="fill:#f5f5f5; stroke-width:0px;"/><path id="text11727" d="M26.1955,35.5611c.945-.801,2.0817-1.6755,2.85-2.6311,1.3175-.7146.5751,1.3921-.0426,1.7604-1.4694,1.735-5.8734,4.9232-8.2896,4.9144-1.2602.1106-2.3027-1.1049-1.8878-2.3344.7203-5.1068,2.3573-10.0408,3.0004-15.16.3437-1.5979-1.1682-.5941-1.835.0399-.8409.7829-1.6059,1.5207-2.4724,2.2707-1.3219.053.2448-1.7626.6963-2.235,1.3119-1.4767,5.3548-4.5284,7.4411-4.6855,1.2545.0399,2.0447,1.3537,1.8287,2.5302-.3517,2.3562-1.0352,4.6539-1.5402,6.9816-.7085,2.9707-1.451,6.9526-1.8483,8.9757-.2062,1.0499,1.0586.3627,2.0994-.4268Z" style="fill:#f5f5f5; stroke-width:0px;"/><path d="M24,3.4286C12.6387,3.4286,3.4286,12.6387,3.4286,24s9.2101,20.5714,20.5714,20.5714,20.5714-9.2101,20.5714-20.5714S35.3613,3.4286,24,3.4286ZM24,42.8571c-10.3979,0-18.8571-8.4609-18.8571-18.8571S13.6021,5.1429,24,5.1429s18.8571,8.4609,18.8571,18.8571-8.4593,18.8571-18.8571,18.8571Z" style="fill:url(#linear-gradient); opacity:.15; stroke-width:0px;"/><circle id="glass" cx="24" cy="24" r="24" style="fill:url(#radial-gradient-2); isolation:isolate; opacity:.25; stroke-width:0px;"/></g></g></g><g id="SYMBOLS"><g id="jellyfish-2"><g id="badge-2"><circle id="jf_rim-2" cx="35" cy="35" r="13" style="fill:url(#radial-gradient-3); stroke-width:0px;"/><circle id="inner_rim-2" cx="35" cy="35" r="11.1429" style="fill:#212121; stroke-width:0px;"/><path d="M35.1479,44.403c-2.4535,0-4.7638-.9562-6.5054-2.6926l-.2953-.2949,2.6066-2.6064c-.8692-1.0075-1.3457-2.2798-1.3457-3.6054,0-3.0546,2.4852-5.5398,5.5398-5.5398,1.3248,0,2.597.4763,3.605,1.3455l2.607-2.6068.2945.2961c1.7364,1.7417,2.6928,4.052,2.6928,6.505,0,5.0725-4.1268,9.1993-9.1993,9.1993ZM32.1311,38.8095c.8479.7118,1.9107,1.101,3.0168,1.101,2.5954,0,4.7068-2.1114,4.7068-4.7068,0-1.1059-.3895-2.1687-1.101-3.0168l-6.6226,6.6226Z" style="opacity:.05; stroke-width:0px;"/><path d="M41.5067,28.8455l-.1472-.1481-2.5984,2.5984c-.9892-.9162-2.2618-1.4237-3.6131-1.4237-2.9399,0-5.3316,2.3916-5.3316,5.3316,0,1.3515.5074,2.6243,1.4239,3.6134l-2.5984,2.5984.1476.1472c1.7024,1.6973,3.9604,2.632,6.3584,2.632,4.9576,0,8.991-4.0333,8.991-8.991,0-2.3977-.9349-4.6556-2.6322-6.3582ZM35.1479,40.1188c-1.2428,0-2.4119-.4631-3.3211-1.2995l6.9366-6.9366c.8365.9093,1.2995,2.0785,1.2995,3.321,0,2.7101-2.2049,4.9151-4.9151,4.9151Z" style="opacity:.07; stroke-width:0px;"/><path d="M38.7684,31.5833l-7.2409,7.2409c-.9271-.9271-1.5028-2.2055-1.5028-3.6204,0-2.83,2.2933-5.1233,5.1233-5.1233,1.415,0,2.6934.5758,3.6204,1.5028Z" style="fill:#f5f5f5; stroke-width:0px;"/><path d="M41.3593,28.9923l-2.5887,2.5887c.9271.9271,1.5006,2.2079,1.5006,3.6227,0,2.8295-2.2938,5.1233-5.1233,5.1233-1.4148,0-2.6956-.5734-3.6227-1.5006l-2.5887,2.5887c1.5907,1.5858,3.7864,2.5714,6.2114,2.5714,4.85,0,8.7828-3.9327,8.7828-8.7828,0-2.425-.9856-4.6207-2.5714-6.2114Z" style="fill:#f5f5f5; stroke-width:0px;"/><path d="M38.7684,31.5833l-7.2409,7.2409c-.9271-.9271-1.5028-2.2055-1.5028-3.6204,0-2.83,2.2933-5.1233,5.1233-5.1233,1.415,0,2.6934.5758,3.6204,1.5028Z" style="fill:#f5f5f5; stroke-width:0px;"/><path d="M35,23.8571c-6.1541,0-11.1429,4.9888-11.1429,11.1429s4.9888,11.1429,11.1429,11.1429,11.1429-4.9888,11.1429-11.1429-4.9888-11.1429-11.1429-11.1429ZM35,45.2143c-5.6322,0-10.2143-4.583-10.2143-10.2143s4.5821-10.2143,10.2143-10.2143,10.2143,4.583,10.2143,10.2143-4.5821,10.2143-10.2143,10.2143Z" style="fill:url(#linear-gradient-2); opacity:.15; stroke-width:0px;"/><circle id="glass-2" cx="35" cy="35" r="13" style="fill:url(#radial-gradient-4); isolation:isolate; opacity:.25; stroke-width:0px;"/></g></g></g></svg>