<?xml version="1.0" encoding="UTF-8"?><svg xmlns="http://www.w3.org/2000/svg" width="48" height="48" xmlns:xlink="http://www.w3.org/1999/xlink" viewBox="0 0 48 48"><defs><linearGradient id="linear-gradient" x1="252.1891" y1="-731.3823" x2="295.9748" y2="-747.5252" gradientTransform="translate(-98.1315 -644.8878) rotate(10.4224) scale(.8556 -.8555)" gradientUnits="userSpaceOnUse"><stop offset="0" stop-color="#fff"/><stop offset="1" stop-color="#d3d7cf"/></linearGradient><linearGradient id="linear-gradient-2" x1="96.6659" y1="-859.6789" x2="125.7864" y2="-889.6789" gradientTransform="translate(-73.4912 -709.4525) scale(.8352 -.8352)" gradientUnits="userSpaceOnUse"><stop offset="0" stop-color="#555753"/><stop offset="1" stop-color="#000"/></linearGradient><linearGradient id="linear-gradient-3" x1="91.4375" y1="-863.3198" x2="126.9977" y2="-879.5966" gradientTransform="translate(-73.4912 -709.4525) scale(.8352 -.8352)" gradientUnits="userSpaceOnUse"><stop offset="0" stop-color="#729fcf"/><stop offset="1" stop-color="#336397"/></linearGradient><linearGradient id="linear-gradient-4" x1="310.2025" y1="-684.8499" x2="353.9882" y2="-700.9927" gradientTransform="translate(-106.4327 -619.8617) rotate(14.1407) scale(.8556 -.8555)" xlink:href="#linear-gradient"/><linearGradient id="linear-gradient-5" x1="163.7386" y1="-823.5505" x2="192.859" y2="-853.5505" gradientTransform="translate(-77.6573 -682.6925) rotate(3.7182) scale(.8352 -.8352)" xlink:href="#linear-gradient-2"/><linearGradient id="linear-gradient-6" x1="164.8882" y1="-833.7731" x2="196.91" y2="-846.5114" gradientTransform="translate(-82.9017 -687.7592) rotate(3.7182) scale(.8352 -.8352)" gradientUnits="userSpaceOnUse"><stop offset="0" stop-color="#91b4da"/><stop offset="1" stop-color="#336397"/></linearGradient><linearGradient id="linear-gradient-7" x1="350.56" y1="-648.5774" x2="394.3457" y2="-664.7202" gradientTransform="translate(-111.9299 -601.0625) rotate(16.8534) scale(.8556 -.8555)" xlink:href="#linear-gradient"/><linearGradient id="linear-gradient-8" x1="211.1213" y1="-794.4865" x2="240.2417" y2="-824.4865" gradientTransform="translate(-80.213 -662.461) rotate(6.4309) scale(.8352 -.8352)" xlink:href="#linear-gradient-2"/><linearGradient id="linear-gradient-9" x1="219.3494" y1="-809.8148" x2="254.5558" y2="-824.7647" gradientTransform="translate(-90.4192 -672.9834) rotate(6.4309) scale(.8352 -.8352)" gradientUnits="userSpaceOnUse"><stop offset="0" stop-color="#a6c2e1"/><stop offset="1" stop-color="#336397"/></linearGradient><radialGradient id="radial-gradient" cx="26.6429" cy="26.1786" fx="26.6429" fy="26.1786" r="13" gradientUnits="userSpaceOnUse"><stop offset="0" stop-color="#fff"/><stop offset="1" stop-color="#f5f5f5"/></radialGradient><linearGradient id="linear-gradient-10" x1="35" y1="46.1429" x2="35" y2="23.8571" gradientUnits="userSpaceOnUse"><stop offset=".5" stop-color="#212121"/><stop offset="1" stop-color="#fff" stop-opacity=".5"/></linearGradient><radialGradient id="radial-gradient-2" cx="-1111.6664" cy="1064.3084" fx="-1111.6664" fy="1064.3084" r="29.9382" gradientTransform="translate(-1020.5255 -975.4018) rotate(-180) scale(.9402 -.9402)" gradientUnits="userSpaceOnUse"><stop offset="0" stop-color="#fff"/><stop offset=".4051" stop-color="#929292"/><stop offset=".816" stop-color="#2a2a2a"/><stop offset=".9747" stop-color="#000"/></radialGradient></defs><g id="HOUDINI_ICONS"><g id="layer1"><path id="path5553" d="M.2776,10.0768L25.1905.4767l11.6383,29.1404-25.6482,9.5407L.2776,10.0768Z" style="fill:url(#linear-gradient); fill-rule:evenodd; stroke:url(#linear-gradient-2); stroke-width:.75px;"/><path id="path5597" d="M1.3631,10.6806L24.7128,1.6822l10.9077,27.3132-24.0389,8.9427L1.3631,10.6806Z" style="fill:none; stroke:#fff; stroke-width:1px;"/><path id="rect22923" d="M2.6385,11.404L24.0668,3.1833l8.4194,21.3569-21.6073,8.8173L2.6385,11.404Z" style="fill:url(#linear-gradient-3); stroke:#204a87; stroke-linejoin:bevel; stroke-width:.5px;"/><path id="path23445" d="M7.1525,13.628l25.483-7.9643,9.724,29.8338-26.213,7.8573L7.1525,13.628Z" style="fill:url(#linear-gradient-4); fill-rule:evenodd; stroke:url(#linear-gradient-5); stroke-width:.75px;"/><path id="path23447" d="M8.1966,14.3009l23.8841-7.4652,9.1135,27.9631-24.5683,7.365L8.1966,14.3009Z" style="fill:none; stroke:#fff; stroke-width:1px;"/><path id="path23449" d="M9.4224,15.1056l21.9164-6.8138,7.0166,21.858-22.1336,7.3975-6.7993-22.4417Z" style="fill:url(#linear-gradient-6); stroke:#204a87; stroke-linejoin:bevel; stroke-width:.5px;"/><path id="path23457" d="M13.5899,17.4041l25.8314-6.7493,8.3011,30.2606-26.5555,6.6079-7.5771-30.1192Z" style="fill:url(#linear-gradient-7); fill-rule:evenodd; stroke:url(#linear-gradient-8); stroke-width:.75px;"/><path id="path23459" d="M14.6009,18.1257l24.2107-6.3265,7.7798,28.3631-24.8893,6.194-7.1012-28.2306Z" style="fill:none; stroke:#fff; stroke-width:1px;"/><path id="path23461" d="M15.7872,18.9875l22.2143-5.7689,5.9743,22.1656-22.459,6.3417-5.7296-22.7383Z" style="fill:url(#linear-gradient-9); stroke:#204a87; stroke-linejoin:bevel; stroke-width:.5px;"/></g></g><g id="SYMBOLS"><g id="jellyfish"><g id="badge"><circle id="jf_rim" cx="35" cy="35" r="13" style="fill:url(#radial-gradient); stroke-width:0px;"/><circle id="inner_rim" cx="35" cy="35" r="11.1429" style="fill:#212121; stroke-width:0px;"/><path d="M35.1479,44.403c-2.4535,0-4.7638-.9562-6.5054-2.6926l-.2953-.2949,2.6066-2.6064c-.8692-1.0075-1.3457-2.2798-1.3457-3.6054,0-3.0546,2.4852-5.5398,5.5398-5.5398,1.3248,0,2.597.4763,3.605,1.3455l2.607-2.6068.2945.2961c1.7364,1.7417,2.6928,4.052,2.6928,6.505,0,5.0725-4.1268,9.1993-9.1993,9.1993ZM32.1311,38.8095c.8479.7118,1.9107,1.101,3.0168,1.101,2.5954,0,4.7068-2.1114,4.7068-4.7068,0-1.1059-.3895-2.1687-1.101-3.0168l-6.6226,6.6226Z" style="opacity:.05; stroke-width:0px;"/><path d="M41.5067,28.8455l-.1472-.1481-2.5984,2.5984c-.9892-.9162-2.2618-1.4237-3.6131-1.4237-2.9399,0-5.3316,2.3916-5.3316,5.3316,0,1.3515.5074,2.6243,1.4239,3.6134l-2.5984,2.5984.1476.1472c1.7024,1.6973,3.9604,2.632,6.3584,2.632,4.9576,0,8.991-4.0333,8.991-8.991,0-2.3977-.9349-4.6556-2.6322-6.3582ZM35.1479,40.1188c-1.2428,0-2.4119-.4631-3.3211-1.2995l6.9366-6.9366c.8365.9093,1.2995,2.0785,1.2995,3.321,0,2.7101-2.2049,4.9151-4.9151,4.9151Z" style="opacity:.07; stroke-width:0px;"/><path d="M38.7684,31.5833l-7.2409,7.2409c-.9271-.9271-1.5028-2.2055-1.5028-3.6204,0-2.83,2.2933-5.1233,5.1233-5.1233,1.415,0,2.6934.5758,3.6204,1.5028Z" style="fill:#f5f5f5; stroke-width:0px;"/><path d="M41.3593,28.9923l-2.5887,2.5887c.9271.9271,1.5006,2.2079,1.5006,3.6227,0,2.8295-2.2938,5.1233-5.1233,5.1233-1.4148,0-2.6956-.5734-3.6227-1.5006l-2.5887,2.5887c1.5907,1.5858,3.7864,2.5714,6.2114,2.5714,4.85,0,8.7828-3.9327,8.7828-8.7828,0-2.425-.9856-4.6207-2.5714-6.2114Z" style="fill:#f5f5f5; stroke-width:0px;"/><path d="M38.7684,31.5833l-7.2409,7.2409c-.9271-.9271-1.5028-2.2055-1.5028-3.6204,0-2.83,2.2933-5.1233,5.1233-5.1233,1.415,0,2.6934.5758,3.6204,1.5028Z" style="fill:#f5f5f5; stroke-width:0px;"/><path d="M35,23.8571c-6.1541,0-11.1429,4.9888-11.1429,11.1429s4.9888,11.1429,11.1429,11.1429,11.1429-4.9888,11.1429-11.1429-4.9888-11.1429-11.1429-11.1429ZM35,45.2143c-5.6322,0-10.2143-4.583-10.2143-10.2143s4.5821-10.2143,10.2143-10.2143,10.2143,4.583,10.2143,10.2143-4.5821,10.2143-10.2143,10.2143Z" style="fill:url(#linear-gradient-10); opacity:.15; stroke-width:0px;"/><circle id="glass" cx="35" cy="35" r="13" style="fill:url(#radial-gradient-2); isolation:isolate; opacity:.25; stroke-width:0px;"/></g></g></g></svg>