<?xml version="1.0" encoding="UTF-8"?><svg id="SYMBOLS" xmlns="http://www.w3.org/2000/svg" width="48" height="48" xmlns:xlink="http://www.w3.org/1999/xlink" viewBox="0 0 48 48"><defs><linearGradient id="linear-gradient" x1="24" y1="47.075" x2="24" y2=".9248" gradientUnits="userSpaceOnUse"><stop offset=".5" stop-color="#212121"/><stop offset="1" stop-color="#fff" stop-opacity=".5"/></linearGradient></defs><path d="M12.1278,0h23.7457c6.6928,0,12.1265,5.4337,12.1265,12.1265v23.7471c0,6.6928-5.4337,12.1265-12.1265,12.1265H12.1265c-6.6928,0-12.1265-5.4337-12.1265-12.1265V12.1278C0,5.4343,5.4343,0,12.1278,0Z" style="opacity:.07; stroke-width:0px;"/><path d="M12.1278.4625h23.7457c6.4375,0,11.664,5.2264,11.664,11.664v23.7471c0,6.4375-5.2264,11.664-11.664,11.664H12.1265c-6.4375,0-11.664-5.2264-11.664-11.664V12.1278C.4625,5.6896,5.6896.4625,12.1278.4625Z" style="opacity:.15; stroke-width:0px;"/><path d="M.925,12.1262v23.7471c0,6.4408,3.9205,11.2017,11.2029,11.2014l23.7456.0003c7.2809-.0003,11.2014-4.761,11.2014-11.2017V12.1262c0-6.4409-3.9205-11.2012-11.2014-11.2014H12.1279C4.8455.9247.925,5.6853.925,12.1262Z" style="fill:#212121; stroke-width:0px;"/><path d="M21.1445,41.5754c-5.449,0-10.5799-2.1238-14.4481-5.9801l-.6558-.6549,5.7891-5.7886c-1.9304-2.2376-2.9887-5.0632-2.9887-8.0072,0-6.7841,5.5194-12.3035,12.3035-12.3035,2.9422,0,5.7678,1.0578,8.0063,2.9883l5.79-5.7895.654.6576c3.8564,3.8681,5.9806,8.9991,5.9806,14.4472,0,11.2656-9.1653,20.4309-20.4309,20.4309ZM14.4444,29.1527c1.883,1.5808,4.2435,2.4453,6.7001,2.4453,5.7642,0,10.4535-4.6893,10.4535-10.4535,0-2.4562-.865-4.8166-2.4453-6.7001l-14.7082,14.7082Z" style="opacity:.05; stroke-width:0px;"/><path d="M35.2669,7.0235l-.327-.3288-5.7709,5.7709c-2.1969-2.0349-5.0233-3.162-8.0245-3.162-6.5294,0-11.841,5.3117-11.841,11.841,0,3.0015,1.1268,5.8285,3.1624,8.0251l-5.7708,5.7708.3279.327c3.7809,3.7696,8.7958,5.8455,14.1215,5.8455,11.0104,0,19.9684-8.9575,19.9684-19.9684,0-5.3252-2.0763-10.3397-5.846-14.121ZM21.1445,32.0605c-2.7602,0-5.3567-1.0285-7.3758-2.8862l15.4057-15.4056c1.8578,2.0194,2.8861,4.6162,2.8861,7.3758,0,6.019-4.897,10.916-10.916,10.916Z" style="opacity:.07; stroke-width:0px;"/><path d="M29.1853,13.1038L13.1038,29.1853c-2.059-2.059-3.3377-4.8982-3.3377-8.0407,0-6.2852,5.0932-11.3784,11.3784-11.3784,3.1426,0,5.9818,1.2787,8.0407,3.3376Z" style="fill:#f5f5f5; stroke-width:0px;"/><path d="M34.9395,7.3496l-5.7492,5.7493c2.0591,2.0591,3.3327,4.9036,3.3327,8.0458,0,6.2841-5.0943,11.3784-11.3784,11.3784-3.1421,0-5.9866-1.2736-8.0458-3.3327l-5.7492,5.7492c3.5327,3.5219,8.4092,5.7109,13.795,5.7109,10.7716,0,19.5059-8.7343,19.5059-19.5059,0-5.3858-2.189-10.2623-5.7109-13.795Z" style="fill:#f5f5f5; stroke-width:0px;"/><path d="M29.1853,13.1038L13.1038,29.1853c-2.059-2.059-3.3377-4.8982-3.3377-8.0407,0-6.2852,5.0932-11.3784,11.3784-11.3784,3.1426,0,5.9818,1.2787,8.0407,3.3376Z" style="fill:#f5f5f5; stroke-width:0px;"/><path d="M35.8735.9248H12.1279C4.8455.9248.925,5.6853.925,12.1262v23.7471c0,6.4407,3.9205,11.2017,11.2029,11.2014l23.7456.0002c7.2809-.0002,11.2014-4.761,11.2014-11.2017V12.1262c0-6.4409-3.9205-11.2012-11.2014-11.2014ZM46.6125,35.8735c0,6.6242-4.1147,10.7389-10.7389,10.7389H12.1278c-6.6247,0-10.7403-4.1147-10.7403-10.7389V12.1265C1.3875,5.5023,5.5032,1.3875,12.1278,1.3875h23.7457c6.6242,0,10.7389,4.1147,10.7389,10.7389v23.7471Z" style="fill:url(#linear-gradient); opacity:.25; stroke-width:0px;"/></svg>