<?xml version="1.0" encoding="UTF-8"?><svg id="Layer_1" xmlns="http://www.w3.org/2000/svg" width="48" height="48" xmlns:xlink="http://www.w3.org/1999/xlink" viewBox="0 0 48 48"><defs><linearGradient id="linear-gradient" x1="7.8465" y1="-1.8511" x2="34.4675" y2="40.7514" gradientUnits="userSpaceOnUse"><stop offset="0" stop-color="#32bdef"/><stop offset="1" stop-color="#1ea2e4"/></linearGradient><linearGradient id="linear-gradient-2" x1="17.3896" y1="1.4617" x2="31.2285" y2="23.978" gradientUnits="userSpaceOnUse"><stop offset="0" stop-color="#464646"/><stop offset="1" stop-color="#212121"/></linearGradient><linearGradient id="linear-gradient-3" x1="8.3426" y1="9.2937" x2="8.3426" y2="12.9297" xlink:href="#linear-gradient"/><linearGradient id="linear-gradient-4" x1="18.3868" y1="9.2937" x2="18.3868" y2="12.9297" xlink:href="#linear-gradient"/><linearGradient id="linear-gradient-5" x1="13.3647" y1="9.2937" x2="13.3647" y2="12.9297" xlink:href="#linear-gradient"/><linearGradient id="linear-gradient-6" x1="16.3271" y1="15.2207" x2="28.972" y2="35.4569" gradientUnits="userSpaceOnUse"><stop offset="0" stop-color="#fff"/><stop offset=".242" stop-color="#f2f2f2"/><stop offset="1" stop-color="#ccc"/></linearGradient></defs><rect x="4" y="8" width="40" height="32" rx="2" ry="2" style="fill:url(#linear-gradient); stroke-width:0px;"/><path d="M6,8h36c1.1038,0,2,.8962,2,2v5H4v-5c0-1.1038.8962-2,2-2Z" style="fill:url(#linear-gradient-2); stroke-width:0px;"/><path d="M18.3866,8.8057c-1.1483,0-2.1238.7253-2.511,1.739-.3872-1.0137-1.3627-1.739-2.511-1.739s-2.1238.7253-2.511,1.739c-.3872-1.0137-1.3627-1.739-2.511-1.739-1.4858,0-2.6943,1.209-2.6943,2.6943s1.2085,2.6943,2.6943,2.6943c1.1483,0,2.1238-.7253,2.511-1.739.3872,1.0137,1.3627,1.739,2.511,1.739s2.1238-.7253,2.511-1.739c.3872,1.0137,1.3627,1.739,2.511,1.739,1.4858,0,2.6948-1.209,2.6948-2.6943s-1.209-2.6943-2.6948-2.6943Z" style="opacity:.05; stroke-width:0px;"/><g style="opacity:.07;"><circle cx="8.3426" cy="11.5" r="2.1943" style="stroke-width:0px;"/><path d="M18.3866,13.6943c-1.21,0-2.1943-.9844-2.1943-2.1943s.9844-2.1943,2.1943-2.1943,2.1948.9844,2.1948,2.1943-.9844,2.1943-2.1948,2.1943Z" style="stroke-width:0px;"/><circle cx="13.3646" cy="11.5" r="2.1943" style="stroke-width:0px;"/></g><circle cx="8.3426" cy="11.5" r="1.6944" style="fill:url(#linear-gradient-3); stroke-width:0px;"/><circle cx="18.3868" cy="11.5" r="1.6944" style="fill:url(#linear-gradient-4); stroke-width:0px;"/><circle cx="13.3647" cy="11.5" r="1.6944" style="fill:url(#linear-gradient-5); stroke-width:0px;"/><path d="M17.3506,17h13.2998c1.0758,0,1.9492.8734,1.9492,1.9492v17.1006c0,1.0763-.8739,1.9502-1.9502,1.9502h-13.2998c-1.0758,0-1.9492-.8734-1.9492-1.9492v-17.1006c0-1.0763.8739-1.9502,1.9502-1.9502Z" transform="translate(51.5 3.5) rotate(90)" style="opacity:.05; stroke-width:0px;"/><path d="M17.3496,17.5h13.2998c.8004,0,1.4502.6498,1.4502,1.4502v17.0996c0,.8004-.6498,1.4502-1.4502,1.4502h-13.2998c-.7998,0-1.4492-.6494-1.4492-1.4492v-17.1016c0-.7998.6494-1.4492,1.4492-1.4492Z" transform="translate(51.5 3.5) rotate(90)" style="opacity:.07; stroke-width:0px;"/><rect x="14.5" y="19.9" width="19" height="15.2" rx=".95" ry=".95" style="fill:url(#linear-gradient-6); stroke-width:0px;"/></svg>