<?xml version="1.0" encoding="UTF-8"?><svg xmlns="http://www.w3.org/2000/svg" width="48" height="48" xmlns:xlink="http://www.w3.org/1999/xlink" viewBox="0 0 48 48"><defs><radialGradient id="radial-gradient" cx="-326.6724" cy="-1446.1676" fx="-326.6724" fy="-1446.1676" r="17.5796" gradientTransform="translate(477.3991 -630.5536) scale(1.3887 -.4631)" gradientUnits="userSpaceOnUse"><stop offset="0" stop-color="#000"/><stop offset=".1964" stop-color="#000"/><stop offset="1" stop-color="#000" stop-opacity="0"/></radialGradient><linearGradient id="linear-gradient" x1="-226.6528" y1="-148.7991" x2="-226.6528" y2="-137.3795" gradientTransform="translate(307.3675 -150.1116) scale(1.2504 -1.251)" gradientUnits="userSpaceOnUse"><stop offset="0" stop-color="#eaba6f"/><stop offset="1" stop-color="#b97a1b"/></linearGradient><linearGradient id="linear-gradient-2" x1="-229.499" y1="-133.9152" x2="-218.1908" y2="-161.3914" gradientTransform="translate(307.3675 -150.1116) scale(1.2504 -1.251)" gradientUnits="userSpaceOnUse"><stop offset="0" stop-color="#fff"/><stop offset="1" stop-color="#fff" stop-opacity=".6864"/></linearGradient><linearGradient id="linear-gradient-3" x1="-217.463" y1="-20.5061" x2="-192.0247" y2="-26.4358" gradientTransform="translate(277.7919 -25.0505) scale(1.2267 -1.4478)" gradientUnits="userSpaceOnUse"><stop offset="0" stop-color="#e9b96e"/><stop offset="1" stop-color="#c17d11"/></linearGradient><linearGradient id="linear-gradient-4" x1="6.3912" y1="-312.7756" x2="41.7949" y2="-312.7756" gradientTransform="translate(0 -306) scale(1 -1)" gradientUnits="userSpaceOnUse"><stop offset="0" stop-color="#babdb6"/><stop offset="1" stop-color="#93978d"/></linearGradient><linearGradient id="linear-gradient-5" x1="-207.1576" y1="-33.1937" x2="-207.1576" y2="-26.0039" gradientTransform="translate(277.7919 -35.3213) scale(1.2267 -1.4316)" gradientUnits="userSpaceOnUse"><stop offset="0" stop-color="#fff"/><stop offset="1" stop-color="#fff" stop-opacity="0"/></linearGradient><linearGradient id="linear-gradient-6" x1="-184.1292" y1="2354.6344" x2="-184.1292" y2="2360.5093" gradientTransform="translate(244.6141 -1290.1742) scale(1.1995 .5534)" xlink:href="#linear-gradient-5"/><linearGradient id="linear-gradient-7" x1="-449.9556" y1="1254.5125" x2="-450.1779" y2="1271.9946" gradientTransform="translate(-2502.953 558.9154) rotate(90) scale(1.2271 -1.9992)" gradientUnits="userSpaceOnUse"><stop offset="0" stop-color="#fff"/><stop offset=".5" stop-color="#fff" stop-opacity="0"/><stop offset=".75" stop-color="#fff" stop-opacity=".502"/><stop offset="1" stop-color="#fff" stop-opacity="0"/></linearGradient><linearGradient id="linear-gradient-8" x1="28.4538" y1="24.3491" x2="41.5462" y2="45.6509" gradientUnits="userSpaceOnUse"><stop offset="0" stop-color="#464646"/><stop offset="1" stop-color="#212121"/></linearGradient><linearGradient id="linear-gradient-9" x1="28.5871" y1="24.5661" x2="41.4129" y2="45.4339" xlink:href="#linear-gradient-8"/><linearGradient id="linear-gradient-10" x1="31.8578" y1="29.6406" x2="40.6003" y2="43.8649" gradientUnits="userSpaceOnUse"><stop offset="0" stop-color="#fff"/><stop offset=".242" stop-color="#f2f2f2"/><stop offset="1" stop-color="#ccc"/></linearGradient><linearGradient id="linear-gradient-11" x1="35" y1="47.5" x2="35" y2="22.5" gradientUnits="userSpaceOnUse"><stop offset=".5" stop-color="#212121"/><stop offset="1" stop-color="#fff" stop-opacity=".5"/></linearGradient></defs><g id="HOUDINI_ICONS"><g id="layer1"><path id="path4944" d="M48.1553,39.1915c.0045,4.4956-10.9201,8.1413-24.4007,8.1428S-.6579,43.6926-.6623,39.1969c0-.0018,0-.0036,0-.0054-.0045-4.4956,10.9201-8.1413,24.4007-8.1428,13.4806-.0015,24.4125,3.6417,24.417,8.1374v.0054Z" style="fill:url(#radial-gradient); isolation:isolate; opacity:.5696; stroke-width:0px;"/><path id="rect3115" d="M4.0567,12.6048h39.9249l-.0603,25.9186c0,1.6595-1.3519,2.9954-3.0312,2.9954H6.9663c-1.6793,0-3.0312-1.336-3.0312-2.9954l.1215-25.9186Z" style="fill:url(#linear-gradient); stroke:#a0670c; stroke-width:1px;"/><path id="rect4220" d="M5.292,13.8161h37.4189l-.2121,24.758c0,.8904-.7164,1.6071-1.6064,1.6071H6.8378c-.8899,0-1.6064-.7168-1.6064-1.6071l.0606-24.758Z" style="fill:none; isolation:isolate; opacity:.481; stroke:url(#linear-gradient-2); stroke-width:1px;"/><path id="path4162" d="M3.995,12.5954L10.9572,2.0137l25.9129-.1569,7.1966,10.5238-40.0718.2148Z" style="fill:url(#linear-gradient-3); fill-rule:evenodd; stroke:#8f5902; stroke-linejoin:round;"/><path id="path3287" d="M6.5864,11.2537l5.2332-7.9376,24.3372-.1177,5.4094,7.8942-34.9799.1611Z" style="fill:none; stroke:rgba(255,255,255,.502);"/><path id="path3293" d="M23.258,2.2165v10.1101" style="fill:none; stroke:#8f5902; stroke-width:1px;"/><path id="path3352" d="M8.8076,5.2706h30.4535l2.0338,3.0099H6.8912l1.9164-3.0099Z" style="fill:rgba(211,215,207,.502); fill-rule:evenodd; stroke:url(#linear-gradient-4); stroke-width:1px;"/><path id="path3295" d="M21.0758,2.0941l-1.5458,9.9764v9.3896c2.6975-.2912,5.395-3.8016,8.0925-3.2277v-6.7488l-2.0913-9.4874-4.4554.0978Z" style="fill:rgba(211,215,207,.502); fill-rule:evenodd; stroke:#babdb6; stroke-width:1px;"/><path id="path3297" d="M21.0758,1.9054l-1.3639,10.8233h7.9106l-2.0913-10.8233h-4.4554Z" style="fill:url(#linear-gradient-5); fill-rule:evenodd; stroke-width:0px;"/><path id="path3311" d="M20.113,15.7301l-.3556-3.0924h8.0015l-.3556,3.4562-7.2903-.3638Z" style="fill:url(#linear-gradient-6); fill-rule:evenodd; stroke-width:0px;"/><path id="path3354" d="M38.5464,5.2251l-30.0752-.3638-2.3766,3.7291,34.8486-.1819-2.3968-3.1833Z" style="fill:url(#linear-gradient-7); fill-rule:evenodd; stroke-width:0px;"/></g></g><g id="SYMBOLS"><circle cx="35" cy="35" r="12.75" style="opacity:.07; stroke-width:0px;"/><circle id="background_round" cx="35" cy="35" r="12.5" style="fill:url(#linear-gradient-8); stroke-width:0px;"/><circle cx="35" cy="35" r="12.25" style="fill:url(#linear-gradient-9); stroke-width:0px;"/><path id="shadow" d="M34.9565,46c-2.9453,0-5.7188-1.1479-7.8096-3.2324l-.3545-.354,3.1292-3.1289c-1.0435-1.2095-1.6155-2.7368-1.6155-4.3281,0-3.667,2.9834-6.6504,6.6504-6.6504,1.5903,0,3.1177.5718,4.3276,1.6152l3.1296-3.1294.3535.3555c2.0845,2.0908,3.2327,4.8643,3.2327,7.8091,0,6.0894-4.9541,11.0435-11.0435,11.0435ZM31.335,39.2852c1.0178.8545,2.2937,1.3218,3.6216,1.3218,3.1157,0,5.6504-2.5347,5.6504-5.6504,0-1.3276-.4675-2.6035-1.3218-3.6216l-7.9502,7.9502Z" style="opacity:.05; stroke-width:0px;"/><path id="shadow-2" d="M42.5901,27.3237l-.1768-.1777-3.1193,3.1193c-1.1875-1.0999-2.7152-1.7092-4.3375-1.7092-3.5293,0-6.4004,2.8711-6.4004,6.4004,0,1.6224.6091,3.1505,1.7094,4.3378l-3.1193,3.1193.1772.1768c2.0437,2.0376,4.7544,3.1597,7.6331,3.1597,5.9514,0,10.7935-4.8418,10.7935-10.7935,0-2.8784-1.1223-5.5889-3.1599-7.6328ZM34.9565,40.8569c-1.492,0-2.8954-.5559-3.9868-1.5601l8.3272-8.3271c1.0042,1.0916,1.56,2.4952,1.56,3.9868,0,3.2534-2.647,5.9004-5.9004,5.9004Z" style="opacity:.07; stroke-width:0px;"/><path id="logo" d="M45.5,34.9566c0,5.8223-4.7211,10.5434-10.5434,10.5434-2.9111,0-5.547-1.1832-7.4566-3.0869l3.1076-3.1076c1.113,1.113,2.6506,1.8014,4.349,1.8014,3.3968,0,6.1503-2.7536,6.1503-6.1503,0-1.6984-.6884-3.2359-1.8014-4.349l3.1076-3.1076c1.9037,1.9095,3.0869,4.5454,3.0869,7.4566ZM34.9566,28.8062c-3.3973,0-6.1503,2.753-6.1503,6.1503,0,1.6986.6912,3.2333,1.8041,4.3462l8.6925-8.6925c-1.1129-1.1129-2.6476-1.8041-4.3462-1.8041Z" style="fill:url(#linear-gradient-10); stroke-width:0px;"/><path d="M35,22.5c-6.9036,0-12.5,5.5964-12.5,12.5s5.5964,12.5,12.5,12.5,12.5-5.5964,12.5-12.5-5.5964-12.5-12.5-12.5ZM35,47.25c-6.7546,0-12.25-5.4951-12.25-12.25s5.4954-12.25,12.25-12.25,12.25,5.4951,12.25,12.25-5.4954,12.25-12.25,12.25Z" style="fill:url(#linear-gradient-11); opacity:.5; stroke-width:0px;"/><circle cx="35" cy="35" r="13" style="opacity:.05; stroke-width:0px;"/></g></svg>