<?xml version="1.0" encoding="UTF-8"?><svg id="GUIDES" xmlns="http://www.w3.org/2000/svg" width="16" height="16" xmlns:xlink="http://www.w3.org/1999/xlink" viewBox="0 0 16 16"><defs><linearGradient id="linear-gradient" x1="247.3107" y1="-781.5628" x2="264.0817" y2="-787.7459" gradientTransform="translate(-86.3994 -691.8384) rotate(10.4224) scale(.8556 -.8555)" gradientUnits="userSpaceOnUse"><stop offset="0" stop-color="#fff"/><stop offset="1" stop-color="#d3d7cf"/></linearGradient><linearGradient id="linear-gradient-2" x1="81.0612" y1="-899.827" x2="92.5831" y2="-911.6968" gradientTransform="translate(-64.6745 -747.9916) scale(.8352 -.8352)" gradientUnits="userSpaceOnUse"><stop offset="0" stop-color="#555753"/><stop offset="1" stop-color="#000"/></linearGradient><linearGradient id="linear-gradient-3" x1="79.2268" y1="-901.3923" x2="92.8472" y2="-907.6267" gradientTransform="translate(-64.6745 -747.9916) scale(.8352 -.8352)" gradientUnits="userSpaceOnUse"><stop offset="0" stop-color="#729fcf"/><stop offset="1" stop-color="#336397"/></linearGradient><radialGradient id="radial-gradient" cx="8.6071" cy="8.4464" fx="8.6071" fy="8.4464" r="4.5" gradientUnits="userSpaceOnUse"><stop offset="0" stop-color="#fff"/><stop offset="1" stop-color="#f5f5f5"/></radialGradient><linearGradient id="linear-gradient-4" x1="11.5" y1="15.3571" x2="11.5" y2="7.6429" gradientUnits="userSpaceOnUse"><stop offset=".5" stop-color="#212121"/><stop offset="1" stop-color="#fff" stop-opacity=".5"/></linearGradient><radialGradient id="radial-gradient-2" cx="-983.4575" cy="1047.4223" fx="-983.4575" fy="1047.4223" r="10.3632" gradientTransform="translate(-916.7248 -976.6576) rotate(-180) scale(.9402 -.9402)" gradientUnits="userSpaceOnUse"><stop offset="0" stop-color="#fff"/><stop offset=".4051" stop-color="#929292"/><stop offset=".816" stop-color="#2a2a2a"/><stop offset=".9747" stop-color="#000"/></radialGradient></defs><g id="layer1"><path id="path5553" d="M.5,4.2692L10.0422.5921l4.4578,11.1615-9.8239,3.6543L.5,4.2692Z" style="fill:url(#linear-gradient); fill-rule:evenodd; stroke:url(#linear-gradient-2); stroke-width:.75px;"/><path id="path5597" d="M.9158,4.5004L9.8593,1.0538l4.1779,10.4616-9.2075,3.4253L.9158,4.5004Z" style="fill:none; stroke:#fff; stroke-width:.5px;"/><path id="rect22923" d="M1.4043,4.7775L9.6119,1.6288l3.2248,8.1802-8.2761,3.3772L1.4043,4.7775Z" style="fill:url(#linear-gradient-3); stroke:#204a87; stroke-linecap:round; stroke-linejoin:round; stroke-width:.25px;"/></g><g id="jellyfish"><g id="badge"><circle id="jf_rim" cx="11.5" cy="11.5" r="4.5" style="fill:url(#radial-gradient); stroke-width:0px;"/><circle id="inner_rim" cx="11.5" cy="11.5" r="3.8571" style="fill:#212121; stroke-width:0px;"/><path d="M11.5512,14.7549c-.8493,0-1.649-.331-2.2519-.9321l-.1022-.1021.9023-.9022c-.3009-.3487-.4658-.7892-.4658-1.248,0-1.0574.8603-1.9176,1.9176-1.9176.4586,0,.899.1649,1.2479.4658l.9024-.9024.1019.1025c.6011.6029.9321,1.4026.9321,2.2517,0,1.7559-1.4285,3.1844-3.1844,3.1844ZM10.5069,12.8187c.2935.2464.6614.3811,1.0443.3811.8984,0,1.6293-.7309,1.6293-1.6293,0-.3828-.1348-.7507-.3811-1.0443l-2.2924,2.2924Z" style="opacity:.05; stroke-width:0px;"/><path d="M13.7523,9.3696l-.051-.0512-.8995.8995c-.3424-.3172-.7829-.4928-1.2507-.4928-1.0177,0-1.8455.8279-1.8455,1.8455,0,.4678.1756.9084.4929,1.2508l-.8994.8994.0511.051c.5893.5875,1.3709.9111,2.201.9111,1.7161,0,3.1123-1.3961,3.1123-3.1123,0-.83-.3236-1.6115-.9112-2.2009ZM11.5512,13.2719c-.4302,0-.8349-.1603-1.1496-.4498l2.4011-2.4011c.2896.3147.4498.7195.4498,1.1496,0,.9381-.7633,1.7014-1.7014,1.7014Z" style="opacity:.07; stroke-width:0px;"/><path d="M12.8044,10.3173l-2.5065,2.5065c-.3209-.3209-.5202-.7634-.5202-1.2532,0-.9796.7938-1.7734,1.7734-1.7734.4898,0,.9323.1993,1.2532.5202Z" style="fill:#f5f5f5; stroke-width:0px;"/><path d="M13.7013,9.4204l-.8961.8961c.3209.3209.5194.7643.5194,1.254,0,.9794-.794,1.7734-1.7734,1.7734-.4897,0-.9331-.1985-1.254-.5194l-.8961.8961c.5506.5489,1.3107.8901,2.1501.8901,1.6789,0,3.0402-1.3613,3.0402-3.0402,0-.8394-.3412-1.5995-.8901-2.1501Z" style="fill:#f5f5f5; stroke-width:0px;"/><path d="M12.8044,10.3173l-2.5065,2.5065c-.3209-.3209-.5202-.7634-.5202-1.2532,0-.9796.7938-1.7734,1.7734-1.7734.4898,0,.9323.1993,1.2532.5202Z" style="fill:#f5f5f5; stroke-width:0px;"/><path d="M11.5,7.6429c-2.1302,0-3.8571,1.7269-3.8571,3.8571s1.7269,3.8571,3.8571,3.8571,3.8571-1.7269,3.8571-3.8571-1.7269-3.8571-3.8571-3.8571ZM11.5,15.0357c-1.9496,0-3.5357-1.5864-3.5357-3.5357s1.5861-3.5357,3.5357-3.5357,3.5357,1.5864,3.5357,3.5357-1.5861,3.5357-3.5357,3.5357Z" style="fill:url(#linear-gradient-4); opacity:.15; stroke-width:0px;"/><circle id="glass" cx="11.5" cy="11.5" r="4.5" style="fill:url(#radial-gradient-2); isolation:isolate; opacity:.25; stroke-width:0px;"/></g></g></svg>