<?xml version="1.0" encoding="UTF-8"?><svg xmlns="http://www.w3.org/2000/svg" width="16" height="16" xmlns:xlink="http://www.w3.org/1999/xlink" viewBox="0 0 16 16"><defs><linearGradient id="linear-gradient" x1="379.4058" y1="-1179.962" x2="396.1768" y2="-1186.1451" gradientTransform="translate(-135.8842 -1047.5075) rotate(10.4224) scale(.8556 -.8555)" gradientUnits="userSpaceOnUse"><stop offset="0" stop-color="#fff"/><stop offset="1" stop-color="#d3d7cf"/></linearGradient><linearGradient id="linear-gradient-2" x1="188.6968" y1="-1424.9869" x2="200.2187" y2="-1436.8568" gradientTransform="translate(-154.572 -1186.6037) scale(.8352 -.8352)" gradientUnits="userSpaceOnUse"><stop offset="0" stop-color="#555753"/><stop offset="1" stop-color="#000"/></linearGradient><linearGradient id="linear-gradient-3" x1="186.8624" y1="-1426.5522" x2="200.4828" y2="-1432.7866" gradientTransform="translate(-154.572 -1186.6037) scale(.8352 -.8352)" gradientUnits="userSpaceOnUse"><stop offset="0" stop-color="#729fcf"/><stop offset="1" stop-color="#336397"/></linearGradient><linearGradient id="linear-gradient-4" x1="9.234" y1="7.8132" x2="13.766" y2="15.1868" gradientUnits="userSpaceOnUse"><stop offset="0" stop-color="#464646"/><stop offset="1" stop-color="#212121"/></linearGradient><linearGradient id="linear-gradient-5" x1="9.2802" y1="7.8883" x2="13.7198" y2="15.1117" xlink:href="#linear-gradient-4"/><linearGradient id="linear-gradient-6" x1="10.4123" y1="9.6448" x2="13.4386" y2="14.5686" gradientUnits="userSpaceOnUse"><stop offset="0" stop-color="#fff"/><stop offset=".242" stop-color="#f2f2f2"/><stop offset="1" stop-color="#ccc"/></linearGradient><linearGradient id="linear-gradient-7" x1="11.5" y1="15.8269" x2="11.5" y2="7.1731" gradientUnits="userSpaceOnUse"><stop offset=".5" stop-color="#212121"/><stop offset="1" stop-color="#fff" stop-opacity=".5"/></linearGradient></defs><g id="HOUDINI_ICONS"><g id="layer1"><path id="path5553" d="M.5,4.2692L10.0422.5921l4.4578,11.1615-9.8239,3.6543L.5,4.2692Z" style="fill:url(#linear-gradient); fill-rule:evenodd; stroke:url(#linear-gradient-2); stroke-width:.75px;"/><path id="path5597" d="M.9158,4.5004L9.8593,1.0538l4.1779,10.4616-9.2075,3.4253L.9158,4.5004Z" style="fill:none; stroke:#fff; stroke-width:.5px;"/><path id="rect22923" d="M1.4043,4.7775L9.6119,1.6288l3.2248,8.1802-8.2761,3.3772L1.4043,4.7775Z" style="fill:url(#linear-gradient-3); stroke:#204a87; stroke-linecap:round; stroke-linejoin:round; stroke-width:.25px;"/></g></g><g id="SYMBOLS"><circle cx="11.5" cy="11.5" r="4.4135" style="opacity:.07; stroke-width:0px;"/><circle id="background_round" cx="11.5" cy="11.5" r="4.3269" style="fill:url(#linear-gradient-4); stroke-width:0px;"/><circle cx="11.5" cy="11.5" r="4.2404" style="fill:url(#linear-gradient-5); stroke-width:0px;"/><path id="shadow" d="M11.485,15.3077c-1.0195,0-1.9796-.3974-2.7033-1.1189l-.1227-.1225,1.0832-1.0831c-.3612-.4187-.5592-.9474-.5592-1.4982,0-1.2693,1.0327-2.3021,2.3021-2.3021.5505,0,1.0792.1979,1.498.5591l1.0833-1.0833.1224.123c.7215.7237,1.119,1.6838,1.119,2.7031,0,2.1079-1.7149,3.8227-3.8227,3.8227ZM10.2313,12.9833c.3523.2958.794.4575,1.2536.4575,1.0785,0,1.9559-.8774,1.9559-1.9559,0-.4596-.1618-.9012-.4575-1.2536l-2.752,2.752Z" style="opacity:.05; stroke-width:0px;"/><path id="shadow-2" d="M14.1273,8.8428l-.0612-.0615-1.0798,1.0798c-.411-.3807-.9399-.5916-1.5014-.5916-1.2217,0-2.2155.9938-2.2155,2.2155,0,.5616.2108,1.0905.5917,1.5015l-1.0797,1.0797.0614.0612c.7074.7053,1.6458,1.0937,2.6422,1.0937,2.0601,0,3.7362-1.676,3.7362-3.7362,0-.9964-.3885-1.9346-1.0938-2.6421ZM11.485,13.5274c-.5165,0-1.0023-.1924-1.3801-.54l2.8825-2.8825c.3476.3778.54.8637.54,1.3801,0,1.1262-.9163,2.0424-2.0424,2.0424Z" style="opacity:.07; stroke-width:0px;"/><path id="logo" d="M15.1346,11.485c0,2.0154-1.6342,3.6497-3.6497,3.6497-1.0077,0-1.9201-.4096-2.5811-1.0685l1.0757-1.0757c.3853.3853.9175.6236,1.5054.6236,1.1758,0,2.129-.9532,2.129-2.129,0-.5879-.2383-1.1201-.6236-1.5054l1.0757-1.0757c.659.661,1.0685,1.5734,1.0685,2.5811ZM11.485,9.356c-1.176,0-2.129.953-2.129,2.129,0,.588.2393,1.1192.6245,1.5045l3.0089-3.0089c-.3852-.3852-.9165-.6245-1.5045-.6245Z" style="fill:url(#linear-gradient-6); stroke-width:0px;"/><path d="M11.5,7.1731c-2.3897,0-4.3269,1.9372-4.3269,4.3269s1.9372,4.3269,4.3269,4.3269,4.3269-1.9372,4.3269-4.3269-1.9372-4.3269-4.3269-4.3269ZM11.5,15.7404c-2.3381,0-4.2404-1.9022-4.2404-4.2404s1.9022-4.2404,4.2404-4.2404,4.2404,1.9022,4.2404,4.2404-1.9022,4.2404-4.2404,4.2404Z" style="fill:url(#linear-gradient-7); opacity:.5; stroke-width:0px;"/><circle cx="11.5" cy="11.5" r="4.5" style="opacity:.05; stroke-width:0px;"/></g></svg>