<?xml version="1.0" encoding="UTF-8"?><svg id="HOUDINI_ICONS" xmlns="http://www.w3.org/2000/svg" width="16" height="16" xmlns:xlink="http://www.w3.org/1999/xlink" viewBox="0 0 16 16"><defs><radialGradient id="radial-gradient" cx="3.5" cy="3.25" fx="3.5" fy="3.25" r="7" gradientUnits="userSpaceOnUse"><stop offset="0" stop-color="#fff"/><stop offset="1" stop-color="#f5f5f5"/></radialGradient><linearGradient id="linear-gradient" x1="8" y1="14" x2="8" y2="2" gradientUnits="userSpaceOnUse"><stop offset=".5" stop-color="#212121"/><stop offset="1" stop-color="#fff" stop-opacity=".5"/></linearGradient><radialGradient id="radial-gradient-2" cx="-977.6206" cy="1040.372" fx="-977.6206" fy="1040.372" r="16.1205" gradientTransform="translate(-916.7248 -975.4018) rotate(-180) scale(.9402 -.9402)" gradientUnits="userSpaceOnUse"><stop offset="0" stop-color="#fff"/><stop offset=".4051" stop-color="#929292"/><stop offset=".816" stop-color="#2a2a2a"/><stop offset=".9747" stop-color="#000"/></radialGradient></defs><g id="jellyfish"><g id="badge"><circle id="jf_rim" cx="8" cy="8" r="7" style="fill:url(#radial-gradient); stroke-width:0px;"/><circle id="inner_rim" cx="8" cy="8" r="6" style="fill:#212121; stroke-width:0px;"/><path id="path11735" d="M8.1759,3.33c.84-.1847,1.5575.8625,1.0899,1.5881-.3875.7804-1.6572.6754-1.919-.1535-.2534-.6136.1809-1.346.8291-1.4345Z" style="fill:#f5f5f5; stroke-width:0px;"/><path id="text11727" d="M8.6404,11.372c.2756-.2336.6072-.4887.8312-.7674.3843-.2084.1677.406-.0124.5134-.4286.506-1.7131,1.4359-2.4178,1.4334-.3676.0323-.6716-.3223-.5506-.6809.2101-1.4895.6875-2.9286.8751-4.4217.1002-.4661-.3407-.1733-.5352.0116-.2452.2283-.4684.4435-.7211.6623-.3856.0154.0714-.5141.2031-.6519.3827-.4307,1.5618-1.3208,2.1703-1.3666.3659.0116.5964.3948.5334.738-.1026.6872-.3019,1.3574-.4492,2.0363-.2067.8664-.4232,2.0278-.5391,2.6179-.0601.3062.3088.1058.6123-.1245Z" style="fill:#f5f5f5; stroke-width:0px;"/><path d="M8,2c-3.3137,0-6,2.6863-6,6s2.6863,6,6,6,6-2.6863,6-6-2.6863-6-6-6ZM8,13.5c-3.0327,0-5.5-2.4678-5.5-5.5S4.9673,2.5,8,2.5s5.5,2.4678,5.5,5.5-2.4673,5.5-5.5,5.5Z" style="fill:url(#linear-gradient); opacity:.15; stroke-width:0px;"/><circle id="glass" cx="8" cy="8" r="7" style="fill:url(#radial-gradient-2); isolation:isolate; opacity:.25; stroke-width:0px;"/></g></g></svg>