<?xml version="1.0" encoding="UTF-8"?>
<svg id="DCC_ICONS" xmlns="http://www.w3.org/2000/svg" width="48" height="48" viewBox="0 0 48 48">
    <g id="b82a632e-4888-4760-a119-707431a1add2">
        <path id="aafa4d6f-b327-4d41-89f7-193601ba9ff9"
            d="M9.9707,2.0064l31.3672,6.8686h3.3945v37.125H9.1543c-1.234,0-2.2344-1.0004-2.2344-2.2344h0v-9.3546L9.9048,2.1036l.0659-.0971Z"
            style="fill:#36697f; stroke-width:0px;" />
        <path id="e62b8b6d-a2d5-42f5-95e3-82be612e200d"
            d="M9.9707,2h29.4766c1.234,0,2.2344,1.0004,2.2344,2.2344v28.7031H9.9707V2h0Z"
            style="fill:#37a5cc; stroke-width:0px;" />
        <polygon id="b696bc37-b8aa-4354-bbfa-d3faf3be85c0"
            points="3.2676 36.9766 9.9707 32.9375 9.9707 2 3.2676 6.0391 3.2676 36.9766"
            style="fill:#7dc6dd; stroke-width:0px;" />
    </g>
    <g id="a0880521-7399-45a5-9c9f-e67267c4ec84">
        <path
            d="M21.4925,41.062h-1.9491l-.362,1.4201h-1.6149l1.8563-6.497h2.1626l1.9583,6.497h-1.6521l-.3991-1.4201ZM20.4994,37.0524l-.659,2.803h1.3365l-.6775-2.803Z"
            style="fill:#fff; stroke-width:0px;" />
        <path
            d="M26.6147,39.8925v2.5895h-1.6242v-2.5802l-2.0512-3.9167h1.7078l1.188,2.738,1.1787-2.738h1.6428l-2.0419,3.9074Z"
            style="fill:#fff; stroke-width:0px;" />
        <path
            d="M32.0256,41.062h-1.9491l-.362,1.4201h-1.6149l1.8563-6.497h2.1626l1.9583,6.497h-1.6521l-.3991-1.4201ZM31.0325,37.0524l-.659,2.803h1.3365l-.6775-2.803Z"
            style="fill:#fff; stroke-width:0px;" />
    </g>
    <g id="e31ea7dd-e699-418c-8488-ea7f2ad8fb14">
        <path
            d="M34.6681,8.9232v17.1447h-4.0658v-11.0706l-2.8656,11.0461v.0245h-4.0413l-3.0371-11.5115v11.5115h-3.6739V8.9232h5.3883l3.4534,13.7648,3.6249-13.7158-.0245-.049h5.2414Z"
            style="fill:#fff; stroke-width:0px;" />
    </g>
</svg>