<?xml version="1.0" encoding="UTF-8"?><svg id="Layer_1" xmlns="http://www.w3.org/2000/svg" width="62" height="62" xmlns:xlink="http://www.w3.org/1999/xlink" viewBox="0 0 62 62"><defs><linearGradient id="linear-gradient" x1="15.2065" y1="5.3033" x2="46.7937" y2="56.6964" gradientUnits="userSpaceOnUse"><stop offset="0" stop-color="#fff"/><stop offset=".242" stop-color="#f2f2f2"/><stop offset="1" stop-color="#ccc"/></linearGradient><linearGradient id="linear-gradient-2" x1="21.6961" y1="17.2524" x2="39.2179" y2="45.7608" gradientUnits="userSpaceOnUse"><stop offset="0" stop-color="#464646"/><stop offset="1" stop-color="#212121"/></linearGradient><linearGradient id="linear-gradient-3" x1="31" y1="55.9979" x2="31" y2="6.0019" gradientUnits="userSpaceOnUse"><stop offset=".5" stop-color="#f5f5f5"/><stop offset="1" stop-color="#fff"/></linearGradient></defs><path d="M18.1385,5h25.7245c7.2505,0,13.137,5.8865,13.137,13.137v25.726c0,7.2505-5.8865,13.137-13.137,13.137h-25.726c-7.2505,0-13.137-5.8865-13.137-13.137v-25.7245c0-7.2513,5.8872-13.1385,13.1385-13.1385Z" style="opacity:.05; stroke-width:0px;"/><path d="M18.1385,5.5011h25.7231c6.9748,0,12.6374,5.6626,12.6374,12.6374v25.7245c0,6.974-5.662,12.636-12.636,12.636h-25.726c-6.974,0-12.636-5.662-12.636-12.636v-25.7245c0-6.9748,5.6626-12.6374,12.6374-12.6374Z" style="opacity:.07; stroke-width:0px;"/><path d="M6.0021,18.1367v25.726c0,6.9775,4.2472,12.1352,12.1365,12.1349l25.7244.0003c7.8877-.0003,12.1349-5.1577,12.1349-12.1352v-25.726c0-6.9776-4.2472-12.1346-12.1349-12.1349h-25.7244c-7.8893,0-12.1365,5.1573-12.1365,12.1349Z" style="fill:url(#linear-gradient); stroke-width:0px;"/><path d="M27.9066,50.04c-5.903,0-11.4616-2.3007-15.6521-6.4785l-.7105-.7095,6.2715-6.271c-2.0913-2.424-3.2378-5.4852-3.2378-8.6745,0-7.3494,5.9794-13.3288,13.3288-13.3288,3.1874,0,6.2485,1.146,8.6735,3.2373l6.2725-6.272.7085.7124c4.1777,4.1905,6.479,9.749,6.479,15.6511,0,12.2044-9.9291,22.1335-22.1335,22.1335ZM20.6481,36.5821c2.0399,1.7126,4.5971,2.6491,7.2584,2.6491,6.2446,0,11.3246-5.08,11.3246-11.3246,0-2.6609-.937-5.218-2.6491-7.2584l-15.9339,15.9339Z" style="opacity:.05; stroke-width:0px;"/><path d="M43.2058,12.6088l-.3543-.3562-6.2518,6.2518c-2.3799-2.2045-5.4419-3.4255-8.6932-3.4255-7.0735,0-12.8278,5.7543-12.8278,12.8278,0,3.2516,1.2207,6.3142,3.4259,8.6938l-6.2517,6.2517.3552.3543c4.096,4.0838,9.5288,6.3327,15.2983,6.3327,11.9279,0,21.6324-9.704,21.6324-21.6324,0-5.769-2.2494-11.2013-6.3331-15.2978ZM27.9066,39.7322c-2.9902,0-5.803-1.1142-7.9905-3.1267l16.6895-16.6894c2.0127,2.1877,3.1266,5.0009,3.1266,7.9904,0,6.5206-5.3051,11.8257-11.8257,11.8257Z" style="opacity:.07; stroke-width:0px;"/><path d="M49.0379,27.9066c0,11.6692-9.4621,21.1313-21.1313,21.1313-5.8346,0-11.1174-2.3714-14.9445-6.1868l6.2283-6.2283c2.2307,2.2307,5.3123,3.6104,8.7162,3.6104,6.8078,0,12.3266-5.5189,12.3266-12.3266,0-3.404-1.3797-6.4855-3.6104-8.7162l6.2283-6.2284c3.8154,3.8271,6.1868,9.11,6.1868,14.9446ZM27.9066,15.58c-6.809,0-12.3266,5.5176-12.3266,12.3266,0,3.4045,1.3853,6.4802,3.6158,8.7108l17.4216-17.4217c-2.2305-2.2305-5.3063-3.6158-8.7108-3.6158Z" style="fill:url(#linear-gradient-2); stroke-width:0px;"/><path d="M43.863,6.0019h-25.7244c-7.8893,0-12.1365,5.1572-12.1365,12.1349v25.726c0,6.9774,4.2472,12.1351,12.1365,12.1349l25.7244.0002c7.8877-.0002,12.1349-5.1577,12.1349-12.1351v-25.726c0-6.9777-4.2472-12.1347-12.1349-12.1349ZM55.4968,43.863c0,7.1762-4.4576,11.6338-11.6338,11.6338h-25.7245c-7.1767,0-11.6353-4.4576-11.6353-11.6338v-25.726c0-7.1762,4.4586-11.6338,11.6353-11.6338h25.7245c7.1762,0,11.6338,4.4576,11.6338,11.6338v25.726Z" style="fill:url(#linear-gradient-3); stroke-width:0px;"/></svg>