<?xml version="1.0" encoding="UTF-8"?><svg id="Layer_1" xmlns="http://www.w3.org/2000/svg" width="62" height="62" xmlns:xlink="http://www.w3.org/1999/xlink" viewBox="0 0 62 62"><defs><linearGradient id="linear-gradient" x1="15.3898" y1="5.6018" x2="46.6102" y2="56.3982" gradientUnits="userSpaceOnUse"><stop offset="0" stop-color="#464646"/><stop offset="1" stop-color="#212121"/></linearGradient><linearGradient id="linear-gradient-2" x1="15.7078" y1="6.1192" x2="46.2922" y2="55.8808" xlink:href="#linear-gradient"/><linearGradient id="linear-gradient-3" x1="23.5071" y1="18.22" x2="44.3546" y2="52.1393" gradientUnits="userSpaceOnUse"><stop offset="0" stop-color="#fff"/><stop offset=".242" stop-color="#f2f2f2"/><stop offset="1" stop-color="#ccc"/></linearGradient><linearGradient id="linear-gradient-4" x1="31" y1="60.8077" x2="31" y2="1.1923" gradientUnits="userSpaceOnUse"><stop offset=".5" stop-color="#212121"/><stop offset="1" stop-color="#fff" stop-opacity=".5"/></linearGradient></defs><circle cx="31" cy="31" r="30.4038" style="opacity:.07; stroke-width:0px;"/><circle id="background_round" cx="31" cy="31" r="29.8077" style="fill:url(#linear-gradient); stroke-width:0px;"/><circle cx="31" cy="31" r="29.2115" style="fill:url(#linear-gradient-2); stroke-width:0px;"/><path id="shadow" d="M30.8964,57.2308c-7.0234,0-13.637-2.7374-18.6228-7.7081l-.8453-.8442,7.4618-7.4612c-2.4882-2.8841-3.8523-6.5263-3.8523-10.3209,0-8.7444,7.1143-15.8586,15.8586-15.8586,3.7923,0,7.4345,1.3635,10.3197,3.8517l7.463-7.4624.843.8477c4.9707,4.9858,7.7087,11.5994,7.7087,18.6217,0,14.5208-11.8136,26.3344-26.3344,26.3344ZM22.2603,41.2184c2.4271,2.0376,5.4696,3.1519,8.6361,3.1519,7.4298,0,13.474-6.0442,13.474-13.474,0-3.1659-1.1149-6.2084-3.1519-8.6361l-18.9582,18.9582Z" style="opacity:.05; stroke-width:0px;"/><path id="shadow-2" d="M49.0994,12.695l-.4215-.4238-7.4384,7.4384c-2.8317-2.6229-6.4747-4.0757-10.3432-4.0757-8.416,0-15.2625,6.8465-15.2625,15.2625,0,3.8687,1.4524,7.5126,4.0761,10.3439l-7.4382,7.4382.4227.4215c4.8734,4.8589,11.3374,7.5346,18.2019,7.5346,14.1918,0,25.7382-11.5458,25.7382-25.7382,0-6.8639-2.6763-13.3273-7.5352-18.2013ZM30.8964,44.9665c-3.5578,0-6.9045-1.3256-9.5071-3.7201l19.8572-19.857c2.3947,2.6029,3.7201,5.95,3.7201,9.507,0,7.7582-6.312,14.0702-14.0702,14.0702Z" style="opacity:.07; stroke-width:0px;"/><path id="logo" d="M56.0385,30.8964c0,13.884-11.2581,25.1421-25.1421,25.1421-6.942,0-13.2275-2.8215-17.781-7.3611l7.4104-7.4104c2.6541,2.6541,6.3206,4.2956,10.3706,4.2956,8.1,0,14.6662-6.5663,14.6662-14.6662,0-4.05-1.6415-7.7165-4.2956-10.3706l7.4104-7.4105c4.5395,4.5535,7.3611,10.839,7.3611,17.7811ZM30.8964,16.2302c-8.1013,0-14.6662,6.5649-14.6662,14.6662,0,4.0506,1.6482,7.7102,4.3021,10.3641l20.7282-20.7283c-2.6538-2.6538-6.3134-4.302-10.3641-4.302Z" style="fill:url(#linear-gradient-3); stroke-width:0px;"/><path d="M31,1.1923C14.5377,1.1923,1.1923,14.5377,1.1923,31s13.3453,29.8077,29.8077,29.8077,29.8077-13.3453,29.8077-29.8077S47.4623,1.1923,31,1.1923ZM31,60.2115C14.8928,60.2115,1.7885,47.1078,1.7885,31S14.8928,1.7885,31,1.7885s29.2115,13.1037,29.2115,29.2115-13.1043,29.2115-29.2115,29.2115Z" style="fill:url(#linear-gradient-4); opacity:.5; stroke-width:0px;"/><circle cx="31" cy="31" r="31" style="opacity:.05; stroke-width:0px;"/></svg>