<?xml version="1.0" encoding="UTF-8"?><svg id="Layer_1" xmlns="http://www.w3.org/2000/svg" width="62" height="62" viewBox="0 0 62 62"><path d="M39.0969,13.9853l-25.1116,25.1116c-3.2151-3.2151-5.2119-7.6486-5.2119-12.5558,0-9.8145,7.9532-17.7676,17.7677-17.7676,4.9073,0,9.3407,1.9967,12.5558,5.2118Z" style="fill:#f5f5f5; stroke-width:0px;"/><path d="M57,26.5412c0,16.82-13.6388,30.4588-30.4589,30.4588-8.41,0-16.0247-3.4182-21.5411-8.9177l8.9775-8.9775c3.2153,3.2153,7.6572,5.204,12.5636,5.204,9.8128,0,17.7677-7.9549,17.7677-17.7676,0-4.9065-1.9887-9.3483-5.204-12.5636l8.9775-8.9776c5.4995,5.5164,8.9177,13.1311,8.9177,21.5412ZM26.5411,8.7736c-9.8145,0-17.7677,7.9532-17.7677,17.7676,0,4.9072,1.9967,9.3406,5.2119,12.5558l25.1116-25.1116c-3.215-3.215-7.6485-5.2118-12.5558-5.2118Z" style="fill:#f5f5f5; stroke-width:0px;"/></svg>