<?xml version="1.0" encoding="UTF-8"?><svg id="Layer_1" xmlns="http://www.w3.org/2000/svg" width="62" height="62" viewBox="0 0 62 62"><path d="M46.7682,7l-8.2869,8.287c2.968,2.968,4.8037,7.0681,4.8037,11.5972,0,9.0579-7.3429,16.4009-16.4009,16.4009-4.529,0-8.6292-1.8357-11.5972-4.8037l-8.2869,8.2869c5.0921,5.0765,12.1211,8.2317,19.8841,8.2317,15.5262,0,28.1158-12.5896,28.1158-28.1158,0-7.7631-3.1552-14.7921-8.2317-19.8842Z" style="fill:#212121; stroke-width:0px;"/><path d="M38.4741,15.2942l-23.1799,23.18c-2.9678-2.9678-4.811-7.0602-4.811-11.5899,0-9.0595,7.3414-16.4009,16.4009-16.4009,4.5298,0,8.6222,1.8431,11.5899,4.8109Z" style="fill:#212121; stroke-width:0px;"/></svg>