<?xml version="1.0" encoding="UTF-8"?><svg id="Layer_1" xmlns="http://www.w3.org/2000/svg" width="62" height="62" xmlns:xlink="http://www.w3.org/1999/xlink" viewBox="0 0 62 62"><defs><linearGradient id="linear-gradient" x1="12.1693" y1=".3616" x2="49.8309" y2="61.638" gradientUnits="userSpaceOnUse"><stop offset="0" stop-color="#fff"/><stop offset=".242" stop-color="#f2f2f2"/><stop offset="1" stop-color="#ccc"/></linearGradient><linearGradient id="linear-gradient-2" x1="19.9069" y1="14.6086" x2="40.7983" y2="48.5994" gradientUnits="userSpaceOnUse"><stop offset="0" stop-color="#464646"/><stop offset="1" stop-color="#212121"/></linearGradient><linearGradient id="linear-gradient-3" x1="31" y1="60.8052" x2="31" y2="1.1945" gradientUnits="userSpaceOnUse"><stop offset=".5" stop-color="#f5f5f5"/><stop offset="1" stop-color="#fff"/></linearGradient></defs><path d="M15.6651,0h30.6715c8.6448,0,15.6634,7.0185,15.6634,15.6634v30.6733c0,8.6448-7.0185,15.6634-15.6634,15.6634H15.6634c-8.6448,0-15.6634-7.0185-15.6634-15.6634V15.6651C0,7.0193,7.0193,0,15.6651,0Z" style="opacity:.05; stroke-width:0px;"/><path d="M15.6651.5974h30.6715c8.3151,0,15.0659,6.7508,15.0659,15.0659v30.6733c0,8.3151-6.7508,15.0659-15.0659,15.0659H15.6634c-8.3151,0-15.0659-6.7508-15.0659-15.0659V15.6651C.5974,7.349,7.349.5974,15.6651.5974Z" style="opacity:.07; stroke-width:0px;"/><path d="M1.1948,15.663v30.6733c0,8.3193,5.064,14.4689,14.4704,14.4685l30.6714.0004c9.4045-.0004,14.4685-6.1496,14.4685-14.4689V15.663c0-8.3195-5.064-14.4682-14.4685-14.4685H15.6652C6.2588,1.1945,1.1948,7.3435,1.1948,15.663Z" style="fill:url(#linear-gradient); stroke-width:0px;"/><path d="M27.3117,53.7016c-7.0382,0-13.6658-2.7432-18.6621-7.7243l-.8471-.8459,7.4775-7.477c-2.4935-2.8902-3.8604-6.54-3.8604-10.3427,0-8.7628,7.1293-15.8921,15.8921-15.8921,3.8003,0,7.4501,1.3663,10.3415,3.8598l7.4787-7.4781.8448.8494c4.9811,4.9963,7.7249,11.6238,7.7249,18.6609,0,14.5514-11.8385,26.3899-26.3899,26.3899ZM18.6574,37.6555c2.4322,2.0419,5.4811,3.1586,8.6543,3.1586,7.4455,0,13.5024-6.0569,13.5024-13.5024,0-3.1726-1.1172-6.2215-3.1586-8.6543l-18.9981,18.9981Z" style="opacity:.05; stroke-width:0px;"/><path d="M45.5531,9.072l-.4224-.4247-7.4541,7.4541c-2.8376-2.6284-6.4884-4.0843-10.365-4.0843-8.4338,0-15.2946,6.8609-15.2946,15.2946,0,3.8769,1.4555,7.5285,4.0847,10.3657l-7.4539,7.4539.4236.4224c4.8837,4.8691,11.3613,7.5505,18.2403,7.5505,14.2218,0,25.7925-11.5702,25.7925-25.7925,0-6.8784-2.6819-13.3554-7.5511-18.2397ZM27.3117,41.4115c-3.5653,0-6.919-1.3284-9.5271-3.728l19.899-19.8989c2.3997,2.6084,3.7279,5.9626,3.7279,9.5271,0,7.7745-6.3253,14.0998-14.0998,14.0998Z" style="opacity:.07; stroke-width:0px;"/><path d="M52.5068,27.3118c0,13.9133-11.2818,25.1951-25.1951,25.1951-6.9566,0-13.2554-2.8275-17.8185-7.3766l7.426-7.426c2.6597,2.6597,6.3339,4.3047,10.3924,4.3047,8.117,0,14.6971-6.5802,14.6971-14.6971,0-4.0586-1.645-7.7328-4.3047-10.3924l7.426-7.4261c4.5491,4.5631,7.3766,10.8619,7.3766,17.8186ZM27.3117,12.6146c-8.1184,0-14.6971,6.5787-14.6971,14.6971,0,4.0592,1.6517,7.7264,4.3112,10.3859l20.7719-20.772c-2.6594-2.6594-6.3267-4.3111-10.3859-4.3111Z" style="fill:url(#linear-gradient-2); stroke-width:0px;"/><path d="M46.3366,1.1945H15.6653C6.2588,1.1945,1.1948,7.3435,1.1948,15.6631v30.6733c0,8.3193,5.064,14.4688,14.4704,14.4685l30.6714.0003c9.4045-.0003,14.4685-6.1496,14.4685-14.4688V15.6631c0-8.3196-5.064-14.4682-14.4685-14.4685ZM60.2078,46.3366c0,8.5563-5.3149,13.8711-13.8711,13.8711H15.6651c-8.5569,0-13.8729-5.3149-13.8729-13.8711V15.6634C1.7922,7.1071,7.1083,1.7922,15.6651,1.7922h30.6715c8.5563,0,13.8711,5.3149,13.8711,13.8711v30.6733Z" style="fill:url(#linear-gradient-3); stroke-width:0px;"/></svg>