<?xml version="1.0" encoding="UTF-8"?><svg id="Layer_1" xmlns="http://www.w3.org/2000/svg" width="62" height="62" xmlns:xlink="http://www.w3.org/1999/xlink" viewBox="0 0 62 62"><defs><linearGradient id="linear-gradient" x1="31" y1="55.9453" x2="31" y2="6.0544" gradientUnits="userSpaceOnUse"><stop offset=".5" stop-color="#212121"/><stop offset="1" stop-color="#fff" stop-opacity=".5"/></linearGradient></defs><path d="M18.1655,5.0547h25.6704c7.2353,0,13.1094,5.8741,13.1094,13.1094v25.6719c0,7.2353-5.8741,13.1094-13.1094,13.1094h-25.6719c-7.2353,0-13.1094-5.8741-13.1094-13.1094v-25.6704c0-7.2361,5.8748-13.1108,13.1108-13.1108Z" style="opacity:.05; stroke-width:0px;"/><path d="M18.1655,5.5547h25.6704c6.9593,0,12.6094,5.6501,12.6094,12.6094v25.6719c0,6.9593-5.6501,12.6094-12.6094,12.6094h-25.6719c-6.9593,0-12.6094-5.6501-12.6094-12.6094v-25.6704c0-6.9601,5.6507-12.6108,12.6108-12.6108Z" style="opacity:.07; stroke-width:0px;"/><path d="M6.0547,18.1638v25.6719c0,6.9628,4.2383,12.1097,12.1109,12.1094l25.6703.0003c7.8711-.0003,12.1094-5.1468,12.1094-12.1097v-25.6719c0-6.9629-4.2383-12.1091-12.1094-12.1094h-25.6703c-7.8727,0-12.1109,5.1464-12.1109,12.1094Z" style="fill:#212121; stroke-width:0px;"/><path d="M27.9131,50c-5.8906,0-11.4375-2.2959-15.6191-6.4648l-.709-.708,6.2583-6.2578c-2.0869-2.4189-3.231-5.4736-3.231-8.6562,0-7.334,5.9668-13.3008,13.3008-13.3008,3.1807,0,6.2354,1.1436,8.6553,3.2305l6.2593-6.2588.707.7109c4.1689,4.1816,6.4653,9.7285,6.4653,15.6182,0,12.1787-9.9082,22.0869-22.0869,22.0869ZM20.6699,36.5703c2.0356,1.709,4.5874,2.6436,7.2432,2.6436,6.2314,0,11.3008-5.0693,11.3008-11.3008,0-2.6553-.9351-5.207-2.6436-7.2432l-15.9004,15.9004Z" style="opacity:.05; stroke-width:0px;"/><path d="M43.1802,12.6475l-.3535-.3555-6.2386,6.2386c-2.3749-2.1998-5.4304-3.4183-8.6749-3.4183-7.0586,0-12.8008,5.7422-12.8008,12.8008,0,3.2448,1.2181,6.3009,3.4187,8.6755l-6.2385,6.2385.3545.3535c4.0874,4.0752,9.5088,6.3193,15.2661,6.3193,11.9028,0,21.5869-9.6836,21.5869-21.5869,0-5.7568-2.2446-11.1777-6.3198-15.2656ZM27.9131,39.7139c-2.9839,0-5.7908-1.1118-7.9737-3.1201l16.6544-16.6543c2.0084,2.1831,3.1201,4.9904,3.1201,7.9736,0,6.5068-5.2939,11.8008-11.8008,11.8008Z" style="opacity:.07; stroke-width:0px;"/><path d="M36.6056,19.2206l-17.3849,17.385c-2.2259-2.2259-3.6082-5.2952-3.6082-8.6925,0-6.7947,5.506-12.3007,12.3007-12.3007,3.3974,0,6.4667,1.3824,8.6925,3.6082Z" style="fill:#f5f5f5; stroke-width:0px;"/><path d="M42.8262,13l-6.2152,6.2153c2.226,2.226,3.6028,5.3011,3.6028,8.6979,0,6.7934-5.5072,12.3007-12.3007,12.3007-3.3968,0-6.4719-1.3768-8.6979-3.6028l-6.2152,6.2152c3.8191,3.8074,9.0908,6.1738,14.9131,6.1738,11.6447,0,21.0869-9.4422,21.0869-21.0869,0-5.8224-2.3664-11.0941-6.1738-14.9132Z" style="fill:#f5f5f5; stroke-width:0px;"/><path d="M36.6056,19.2206l-17.3849,17.385c-2.2259-2.2259-3.6082-5.2952-3.6082-8.6925,0-6.7947,5.506-12.3007,12.3007-12.3007,3.3974,0,6.4667,1.3824,8.6925,3.6082Z" style="fill:#f5f5f5; stroke-width:0px;"/><path d="M43.8359,6.0544h-25.6703c-7.8727,0-12.111,5.1464-12.111,12.1094v25.6719c0,6.9628,4.2383,12.1096,12.111,12.1094l25.6703.0002c7.8711-.0002,12.1094-5.1469,12.1094-12.1096v-25.6719c0-6.963-4.2383-12.1091-12.1094-12.1094ZM55.4453,43.8359c0,7.1611-4.4482,11.6094-11.6094,11.6094h-25.6704c-7.1616,0-11.6108-4.4482-11.6108-11.6094v-25.6719c0-7.1611,4.4492-11.6094,11.6108-11.6094h25.6704c7.1611,0,11.6094,4.4482,11.6094,11.6094v25.6719Z" style="fill:url(#linear-gradient); opacity:.25; stroke-width:0px;"/></svg>