<?xml version="1.0" encoding="UTF-8"?><svg xmlns="http://www.w3.org/2000/svg" width="16" height="16" xmlns:xlink="http://www.w3.org/1999/xlink" viewBox="0 0 16 16"><defs><radialGradient id="radial-gradient" cx="-902.0223" cy="1045.1564" fx="-902.0223" fy="1045.1564" r="11.5147" gradientTransform="translate(-841.057 -975.4018) rotate(-180) scale(.9402 -.9402)" gradientUnits="userSpaceOnUse"><stop offset="0" stop-color="#fff"/><stop offset=".4051" stop-color="#929292"/><stop offset=".816" stop-color="#2a2a2a"/><stop offset=".9747" stop-color="#000"/></radialGradient></defs><g id="HOUDINI_ICONS"><path d="M10.18,3.4191l-6.7608,6.7608c-.8656-.8656-1.4032-2.0592-1.4032-3.3804,0-2.6424,2.1412-4.7836,4.7836-4.7836,1.3212,0,2.5148.5376,3.3804,1.4032Z" style="fill:#f5f5f5; stroke-width:0px;"/><path d="M12.5991,1l-2.417,2.417c.8657.8657,1.4011,2.0615,1.4011,3.3825,0,2.6419-2.1417,4.7836-4.7836,4.7836-1.321,0-2.5168-.5354-3.3825-1.4011l-2.417,2.417c1.4852,1.4806,3.5353,2.4009,5.7995,2.4009,4.5285,0,8.2005-3.672,8.2005-8.2005,0-2.2643-.9203-4.3144-2.4009-5.7996Z" style="fill:#f5f5f5; stroke-width:0px;"/><path d="M10.18,3.4191l-6.7608,6.7608c-.8656-.8656-1.4032-2.0592-1.4032-3.3804,0-2.6424,2.1412-4.7836,4.7836-4.7836,1.3212,0,2.5148.5376,3.3804,1.4032Z" style="fill:#f5f5f5; stroke-width:0px;"/></g><g id="GUIDES"><g id="badge"><circle cx="11" cy="11" r="4.75" style="fill:#7661f6; stroke-width:0px;"/><path d="M11,6.5c2.4813,0,4.5,2.0187,4.5,4.5s-2.0187,4.5-4.5,4.5-4.5-2.0187-4.5-4.5,2.0187-4.5,4.5-4.5M11,6c-2.7614,0-5,2.2386-5,5s2.2386,5,5,5,5-2.2386,5-5-2.2386-5-5-5h0Z" style="fill:#212121; stroke-width:0px;"/></g><path d="M13.3532,8.644c-.6799-.6799-1.6433-1.0719-2.7028-.9635-1.5307.1543-2.7903,1.3973-2.9614,2.928-.2294,2.0229,1.3347,3.7288,3.3075,3.7288,1.3305,0,2.4734-.78,3.0072-1.9019.1335-.2795-.0667-.6006-.3754-.6006-.1543,0-.3003.0834-.367.2211-.4713,1.0135-1.6016,1.6559-2.8362,1.3806-.9259-.2044-1.6725-.9593-1.8686-1.8853-.3504-1.6183.8801-3.0531,2.44-3.0531.6924,0,1.3097.2878,1.7601.7424l-.6298.6298c-.2628.2628-.0792.7132.292.7132h1.4974c.2294,0,.4171-.1877.4171-.4171v-1.4974c0-.3712-.4505-.5589-.7132-.2961l-.2669.2711Z" style="fill:#212121; stroke-width:0px;"/><circle id="glass" cx="11" cy="11" r="5" style="fill:url(#radial-gradient); isolation:isolate; opacity:.25; stroke-width:0px;"/></g></svg>