<?xml version="1.0" encoding="UTF-8"?><svg xmlns="http://www.w3.org/2000/svg" width="16" height="16" xmlns:xlink="http://www.w3.org/1999/xlink" viewBox="0 0 16 16"><defs><radialGradient id="radial-gradient" cx="-741.0612" cy="1045.1564" fx="-741.0612" fy="1045.1564" r="11.5147" gradientTransform="translate(-689.7215 -975.4018) rotate(-180) scale(.9402 -.9402)" gradientUnits="userSpaceOnUse"><stop offset="0" stop-color="#fff"/><stop offset=".4051" stop-color="#929292"/><stop offset=".816" stop-color="#2a2a2a"/><stop offset=".9747" stop-color="#000"/></radialGradient></defs><g id="HOUDINI_ICONS"><path d="M10.18,3.4191l-6.7608,6.7608c-.8656-.8656-1.4032-2.0592-1.4032-3.3804,0-2.6424,2.1412-4.7836,4.7836-4.7836,1.3212,0,2.5148.5376,3.3804,1.4032Z" style="fill:#212121; stroke-width:0px;"/><path d="M12.5991,1l-2.417,2.417c.8657.8657,1.4011,2.0615,1.4011,3.3825,0,2.6419-2.1417,4.7836-4.7836,4.7836-1.321,0-2.5168-.5354-3.3825-1.4011l-2.417,2.417c1.4852,1.4806,3.5353,2.4009,5.7995,2.4009,4.5285,0,8.2004-3.672,8.2004-8.2004,0-2.2642-.9203-4.3144-2.4009-5.7996Z" style="fill:#212121; stroke-width:0px;"/><path d="M10.18,3.4191l-6.7608,6.7608c-.8656-.8656-1.4032-2.0592-1.4032-3.3804,0-2.6424,2.1412-4.7836,4.7836-4.7836,1.3212,0,2.5148.5376,3.3804,1.4032Z" style="fill:#212121; stroke-width:0px;"/><circle id="glass" cx="11" cy="11" r="5" style="fill:url(#radial-gradient); isolation:isolate; opacity:.25; stroke-width:0px;"/></g><g id="GUIDES"><g id="badge"><circle cx="11" cy="11" r="4.75" style="fill:#f44; stroke-width:0px;"/><path d="M11,6.5c2.4813,0,4.5,2.0187,4.5,4.5s-2.0187,4.5-4.5,4.5-4.5-2.0187-4.5-4.5,2.0187-4.5,4.5-4.5M11,6c-2.7614,0-5,2.2386-5,5s2.2386,5,5,5,5-2.2386,5-5-2.2386-5-5-5h0Z" style="fill:#212121; stroke-width:0px;"/></g><path d="M11,7.6667c.3667,0,.6667.3.6667.6667v2.6667c0,.3667-.3.6667-.6667.6667s-.6667-.3-.6667-.6667v-2.6667c0-.3667.3-.6667.6667-.6667ZM11,14.3333h0c-.3682,0-.6667-.2985-.6667-.6667h0c0-.3682.2985-.6667.6667-.6667h0c.3682,0,.6667.2985.6667.6667h0c0,.3682-.2985.6667-.6667.6667Z" style="fill:#212121; stroke-width:0px;"/><circle id="glass-2" cx="11" cy="11" r="5" style="fill:url(#radial-gradient); isolation:isolate; opacity:.25; stroke-width:0px;"/></g></svg>