<?xml version="1.0" encoding="UTF-8"?><svg id="HOUDINI_ICONS" xmlns="http://www.w3.org/2000/svg" width="16" height="16" viewBox="0 0 16 16"><path d="M10.18,3.4191l-6.7608,6.7608c-.8656-.8656-1.4032-2.0592-1.4032-3.3804,0-2.6424,2.1412-4.7836,4.7836-4.7836,1.3212,0,2.5148.5376,3.3804,1.4032Z" style="fill:#f5f5f5; stroke-width:0px;"/><path d="M12.5991,1l-2.417,2.417c.8657.8657,1.4011,2.0615,1.4011,3.3825,0,2.6419-2.1417,4.7836-4.7836,4.7836-1.321,0-2.5168-.5354-3.3825-1.4011l-2.417,2.417c1.4852,1.4806,3.5353,2.4009,5.7995,2.4009,4.5285,0,8.2005-3.672,8.2005-8.2005,0-2.2643-.9203-4.3144-2.4009-5.7996Z" style="fill:#f5f5f5; stroke-width:0px;"/><path d="M10.18,3.4191l-6.7608,6.7608c-.8656-.8656-1.4032-2.0592-1.4032-3.3804,0-2.6424,2.1412-4.7836,4.7836-4.7836,1.3212,0,2.5148.5376,3.3804,1.4032Z" style="fill:#f5f5f5; stroke-width:0px;"/></svg>