<?xml version="1.0" encoding="UTF-8"?><svg xmlns="http://www.w3.org/2000/svg" width="16" height="16" xmlns:xlink="http://www.w3.org/1999/xlink" viewBox="0 0 16 16"><defs><radialGradient id="radial-gradient" cx="-864.8775" cy="1046.3013" fx="-864.8775" fy="1046.3013" r="11.5147" gradientTransform="translate(-806.1335 -976.4782) rotate(-180) scale(.9402 -.9402)" gradientUnits="userSpaceOnUse"><stop offset="0" stop-color="#fff"/><stop offset=".4051" stop-color="#929292"/><stop offset=".816" stop-color="#2a2a2a"/><stop offset=".9747" stop-color="#000"/></radialGradient></defs><g id="HOUDINI_ICONS"><path d="M10.18,3.4191l-6.7608,6.7608c-.8656-.8656-1.4032-2.0592-1.4032-3.3804,0-2.6424,2.1412-4.7836,4.7836-4.7836,1.3212,0,2.5148.5376,3.3804,1.4032Z" style="fill:#f5f5f5; stroke-width:0px;"/><path d="M12.5991,1l-2.417,2.417c.8657.8657,1.4011,2.0615,1.4011,3.3825,0,2.6419-2.1417,4.7836-4.7836,4.7836-1.321,0-2.5168-.5354-3.3825-1.4011l-2.417,2.417c1.4852,1.4806,3.5353,2.4009,5.7995,2.4009,4.5285,0,8.2005-3.672,8.2005-8.2005,0-2.2643-.9203-4.3144-2.4009-5.7996Z" style="fill:#f5f5f5; stroke-width:0px;"/><path d="M10.18,3.4191l-6.7608,6.7608c-.8656-.8656-1.4032-2.0592-1.4032-3.3804,0-2.6424,2.1412-4.7836,4.7836-4.7836,1.3212,0,2.5148.5376,3.3804,1.4032Z" style="fill:#f5f5f5; stroke-width:0px;"/></g><g id="GUIDES"><g id="badge"><circle cx="11" cy="11" r="4.75" style="fill:#01a9f4; stroke-width:0px;"/><path d="M11,6.5c2.4813,0,4.5,2.0187,4.5,4.5s-2.0187,4.5-4.5,4.5-4.5-2.0187-4.5-4.5,2.0187-4.5,4.5-4.5M11,6c-2.7614,0-5,2.2386-5,5s2.2386,5,5,5,5-2.2386,5-5-2.2386-5-5-5h0Z" style="fill:#212121; stroke-width:0px;"/></g><rect x="10.407" y="13.2226" width="1.1107" height="1.1107" rx=".5554" ry=".5554" style="fill:#212121; stroke-width:0px;"/><path d="M11.3012,7.6911c-1.1441-.1666-2.1549.5387-2.4603,1.5495-.1.3221.1444.6498.4832.6498h.1111c.2277,0,.411-.1611.4887-.3721.1777-.4943.7053-.8331,1.2774-.7109.5276.1111.9164.6276.8719,1.1663-.0555.7442-.8997.9053-1.3607,1.5995,0,.0056-.0056.0056-.0056.0111-.0056.0111-.0111.0167-.0167.0278-.05.0833-.1.1777-.1388.2777-.0056.0167-.0167.0278-.0222.0444-.0056.0111-.0056.0222-.0111.0389-.0666.1888-.1111.4165-.1111.6942h1.1107c0-.2333.0611-.4276.1555-.5942.0111-.0167.0167-.0333.0278-.05.0444-.0778.1-.15.1555-.2166.0056-.0056.0111-.0167.0167-.0222.0555-.0666.1166-.1277.1833-.1888.5332-.5054,1.2551-.9164,1.1052-1.9771-.1333-.9664-.8942-1.7827-1.8605-1.9271Z" style="fill:#212121; stroke-width:0px;"/><circle id="glass" cx="11" cy="11" r="5" style="fill:url(#radial-gradient); isolation:isolate; opacity:.25; stroke-width:0px;"/></g></svg>