<?xml version="1.0" encoding="UTF-8"?><svg xmlns="http://www.w3.org/2000/svg" width="16" height="16" xmlns:xlink="http://www.w3.org/1999/xlink" viewBox="0 0 16 16"><defs><radialGradient id="radial-gradient" cx="-864.8775" cy="1047.4461" fx="-864.8775" fy="1047.4461" r="11.5147" gradientTransform="translate(-806.1335 -977.5546) rotate(-180) scale(.9402 -.9402)" gradientUnits="userSpaceOnUse"><stop offset="0" stop-color="#fff"/><stop offset=".4051" stop-color="#929292"/><stop offset=".816" stop-color="#2a2a2a"/><stop offset=".9747" stop-color="#000"/></radialGradient></defs><g id="HOUDINI_ICONS"><path d="M10.18,3.4191l-6.7608,6.7608c-.8656-.8656-1.4032-2.0592-1.4032-3.3804,0-2.6424,2.1412-4.7836,4.7836-4.7836,1.3212,0,2.5148.5376,3.3804,1.4032Z" style="fill:#f5f5f5; stroke-width:0px;"/><path d="M12.5991,1l-2.417,2.417c.8657.8657,1.4011,2.0615,1.4011,3.3825,0,2.6419-2.1417,4.7836-4.7836,4.7836-1.321,0-2.5168-.5354-3.3825-1.4011l-2.417,2.417c1.4852,1.4806,3.5353,2.4009,5.7995,2.4009,4.5285,0,8.2005-3.672,8.2005-8.2005,0-2.2643-.9203-4.3144-2.4009-5.7996Z" style="fill:#f5f5f5; stroke-width:0px;"/><path d="M10.18,3.4191l-6.7608,6.7608c-.8656-.8656-1.4032-2.0592-1.4032-3.3804,0-2.6424,2.1412-4.7836,4.7836-4.7836,1.3212,0,2.5148.5376,3.3804,1.4032Z" style="fill:#f5f5f5; stroke-width:0px;"/></g><g id="GUIDES"><g style="opacity:.05;"><path d="M11.5832,6.7996c0,2.6418-2.1417,4.7836-4.7836,4.7836-.6332,0-1.2347-.1295-1.7879-.3529.0551,1.4399.6175,2.7488,1.5163,3.756.0909.003.1799.0137.2716.0137,4.5285,0,8.2005-3.672,8.2005-8.2004,0-.0917-.0107-.1806-.0137-.2715-1.0073-.8989-2.3162-1.4613-3.756-1.5164.2235.5532.3529,1.1547.3529,1.7879Z" style="stroke-width:0px;"/></g><g style="opacity:.07;"><path d="M14.9791,7.214c-.9187-.9651-2.1815-1.5952-3.5911-1.6943.1144.4099.1952.8335.1952,1.2799,0,2.6418-2.1417,4.7836-4.7836,4.7836-.4464,0-.87-.0808-1.2799-.1952.0992,1.4095.7291,2.6724,1.6942,3.5911,4.1965-.2104,7.5549-3.5686,7.7653-7.7651Z" style="stroke-width:0px;"/></g><g id="badge"><circle cx="11" cy="11" r="4.75" style="fill:#8ac549; stroke-width:0px;"/><path d="M11,6.5c2.4813,0,4.5,2.0187,4.5,4.5s-2.0187,4.5-4.5,4.5-4.5-2.0187-4.5-4.5,2.0187-4.5,4.5-4.5M11,6c-2.7614,0-5,2.2386-5,5s2.2386,5,5,5,5-2.2386,5-5-2.2386-5-5-5h0Z" style="fill:#212121; stroke-width:0px;"/></g><path d="M9.8059,13.5499c-.1552,0-.3007-.06-.4101-.1699l-1.5609-1.5599c-.2244-.2259-.2244-.5912,0-.8171.1099-.1099.2549-.1699.4085-.1699s.2986.06.408.1699l1.1559,1.1559,3.54-3.5389c.1094-.1099.2544-.1699.408-.1699s.2986.06.4085.1699c.1094.1089.1694.2544.1694.408,0,.1526-.06.2981-.1694.408l-3.9485,3.9439c-.1094.1099-.2549.1699-.4096.1699Z" style="fill:#212121; stroke-width:0px;"/><circle id="glass" cx="11" cy="11" r="5" style="fill:url(#radial-gradient); isolation:isolate; opacity:.25; stroke-width:0px;"/></g></svg>